<svg width="134" height="72" viewBox="0 0 134 72" fill="none" xmlns="http://www.w3.org/2000/svg">
<g clip-path="url(#clip0_135_891)">
<path fill-rule="evenodd" clip-rule="evenodd" d="M96.7671 19.1402L80.7576 35.1477L72.35 26.7381L77.4926 21.5996L79.7079 23.8149L76.8437 26.6791L80.8186 30.656L85.3102 26.1644L70.6433 11.4975L66.2188 15.922L70.1368 19.84L72.9685 17.0083L75.2021 19.3192L72.2646 22.1855L56.367 38.0871L47.9594 29.6796L53.1 24.537L55.3153 26.7523L52.451 29.6165L56.43 33.5935L60.9176 29.1019L46.2507 14.435L41.759 18.9246L45.6811 22.8425L48.5758 19.9458L50.8094 22.2567L45.6241 27.324L37.2328 18.951L53.2444 2.93745L61.6214 11.3226L56.4789 16.4652L54.2636 14.2478L57.0688 11.4447L53.2281 7.45957L48.6592 12.0264L63.3261 26.6933L67.8177 22.2058L63.8408 18.2289L61.0437 21.028L58.8264 18.8106L63.9567 13.6599L63.9669 13.6701L77.6371 0L86.0141 8.38515L80.8715 13.5257L78.6562 11.3084L81.4614 8.50721L77.6187 4.52009L73.0519 9.089L87.7188 23.7559L92.2104 19.2684L88.2314 15.2894L85.4343 18.0905L83.219 15.8732L88.3474 10.7205L96.7671 19.1402Z" fill="#222222" fill-opacity="0.3"/>
<path d="M3.13082 47.8877H4.70939L7.65091 55.8904H6.04996L5.38476 53.8948H2.44528L1.77601 55.8904H0.177094L3.13082 47.8877ZM5.02063 52.8024L3.9201 49.4988L2.81347 52.8024H5.02063Z" fill="#222222" fill-opacity="0.3"/>
<path d="M7.98859 54.9672L11.2454 51.1001H8.12285V50.0403H12.8687V50.9638L9.63429 54.8309H12.9257V55.8908H7.98859V54.9672Z" fill="#222222" fill-opacity="0.3"/>
<path d="M16.5345 56.0021C15.8876 56.0021 15.3343 55.8618 14.8725 55.5831C14.4108 55.3044 14.0548 54.9342 13.8066 54.4724C13.5584 54.0106 13.4303 53.5122 13.4242 52.9772C13.4242 52.904 13.4282 52.8186 13.4343 52.727C13.4425 52.6334 13.4486 52.5582 13.4567 52.4972H18.0216C17.9992 52.1961 17.9117 51.9377 17.7612 51.7201C17.6106 51.5024 17.4235 51.3376 17.1977 51.2237C16.9719 51.1098 16.7278 51.0528 16.4654 51.0528C16.1562 51.0528 15.8693 51.1261 15.6028 51.2725C15.3364 51.419 15.1533 51.6123 15.0556 51.8523L13.77 51.4922C13.9124 51.1912 14.1158 50.9247 14.3782 50.6928C14.6406 50.4609 14.9539 50.2778 15.314 50.1456C15.674 50.0133 16.0727 49.9482 16.5081 49.9482C16.9882 49.9482 17.4215 50.0276 17.8039 50.1883C18.1863 50.349 18.5118 50.5667 18.7783 50.8413C19.0448 51.1159 19.2523 51.4353 19.3987 51.7994C19.5452 52.1635 19.6184 52.55 19.6184 52.9589C19.6184 53.5082 19.4943 54.0147 19.2462 54.4744C18.998 54.9342 18.644 55.3044 18.1802 55.5831C17.7185 55.8618 17.1672 56.0021 16.5284 56.0021H16.5345ZM16.5467 54.9077C16.8254 54.9077 17.0716 54.8447 17.2852 54.7206C17.4988 54.5965 17.6757 54.4236 17.8161 54.2018C17.9544 53.9821 18.0358 53.7238 18.0582 53.4309H14.9926C15.0149 53.7258 15.1004 53.9821 15.2468 54.2018C15.3933 54.4215 15.5805 54.5945 15.8042 54.7206C16.03 54.8447 16.2782 54.9077 16.5488 54.9077H16.5467Z" fill="#222222" fill-opacity="0.3"/>
<path d="M24.1425 51.2916C23.6848 51.2916 23.2739 51.379 22.9139 51.556C22.5538 51.733 22.2934 51.9873 22.1368 52.3168V55.891H20.6253V50.0405H22.0127V51.2468C22.2222 50.84 22.4887 50.5206 22.8121 50.2887C23.1356 50.0568 23.4773 49.9286 23.8374 49.9062H24.0286C24.0734 49.9062 24.112 49.9103 24.1405 49.9185V51.2936L24.1425 51.2916Z" fill="#222222" fill-opacity="0.3"/>
<path d="M28.3473 56.0026C27.8957 56.0026 27.495 55.9009 27.141 55.6975C26.787 55.494 26.5104 55.2174 26.307 54.8634V55.8887H24.9888V47.6602H26.5002V51.0879C26.7097 50.7339 26.9864 50.4572 27.3281 50.2538C27.6699 50.0504 28.0706 49.9487 28.5284 49.9487C28.9108 49.9487 29.2607 50.028 29.576 50.1887C29.8913 50.3494 30.1639 50.5691 30.3938 50.8519C30.6236 51.1346 30.8006 51.4581 30.9247 51.8222C31.0488 52.1864 31.1098 52.5769 31.1098 52.9919C31.1098 53.4069 31.0406 53.7975 30.9003 54.1616C30.762 54.5257 30.5667 54.8471 30.3205 55.1258C30.0723 55.4045 29.7814 55.6202 29.4478 55.7727C29.1122 55.9253 28.746 56.0006 28.3493 56.0006L28.3473 56.0026ZM27.9303 54.717C28.1703 54.717 28.39 54.6702 28.5894 54.5786C28.7887 54.4871 28.9616 54.363 29.1081 54.2084C29.2546 54.0538 29.3665 53.8707 29.4458 53.6612C29.5251 53.4517 29.5638 53.232 29.5638 53.0041C29.5638 52.6868 29.4987 52.3938 29.3665 52.1253C29.2342 51.8568 29.0552 51.6412 28.8254 51.4784C28.5955 51.3157 28.327 51.2343 28.0198 51.2343C27.8021 51.2343 27.5926 51.2852 27.3932 51.3828C27.1939 51.4805 27.0169 51.6168 26.8643 51.7856C26.7097 51.9544 26.5877 52.1477 26.4982 52.3613V53.7425C26.5429 53.891 26.6162 54.0233 26.7179 54.1413C26.8196 54.2592 26.9376 54.361 27.0739 54.4444C27.2081 54.5298 27.3505 54.5949 27.497 54.6437C27.6435 54.6925 27.7879 54.7149 27.9303 54.7149V54.717Z" fill="#222222" fill-opacity="0.3"/>
<path d="M31.7284 54.1652C31.7284 53.7869 31.8362 53.4553 32.0498 53.1684C32.2634 52.8816 32.5624 52.6619 32.9469 52.5053C33.3293 52.3486 33.7687 52.2713 34.2651 52.2713C34.5132 52.2713 34.7655 52.2897 35.0198 52.3283C35.274 52.367 35.4958 52.426 35.685 52.5094V52.194C35.685 51.8258 35.5731 51.5411 35.3514 51.3417C35.1296 51.1423 34.8001 51.0427 34.3647 51.0427C34.0413 51.0427 33.7341 51.0996 33.4412 51.2115C33.1483 51.3234 32.8391 51.4902 32.5176 51.7079L32.0335 50.7152C32.4241 50.4609 32.8248 50.2676 33.2337 50.1395C33.6426 50.0113 34.0738 49.9482 34.5254 49.9482C35.3676 49.9482 36.0227 50.1557 36.4926 50.5707C36.9625 50.9857 37.1964 51.5777 37.1964 52.3486V54.2039C37.1964 54.3605 37.2249 54.4704 37.2818 54.5375C37.3388 54.6046 37.4303 54.6453 37.5585 54.6595V55.8882C37.4222 55.9106 37.3002 55.9289 37.1923 55.9452C37.0825 55.9594 36.991 55.9676 36.9157 55.9676C36.6146 55.9676 36.3888 55.9004 36.2342 55.7641C36.0796 55.6278 35.984 55.4631 35.9474 55.2678L35.9128 54.9626C35.6565 55.2942 35.3371 55.5485 34.9547 55.7296C34.5722 55.9106 34.1817 56.0001 33.7829 56.0001C33.3842 56.0001 33.0404 55.9208 32.7292 55.7601C32.418 55.6014 32.1739 55.3817 31.9969 55.103C31.8199 54.8243 31.7324 54.511 31.7324 54.1612L31.7284 54.1652ZM35.4042 54.4582C35.4856 54.3707 35.5548 54.2832 35.6077 54.1937C35.6606 54.1062 35.687 54.0249 35.687 53.9516V53.3698C35.506 53.2966 35.3107 53.2396 35.1011 53.199C34.8896 53.1583 34.6923 53.1379 34.5031 53.1379C34.1125 53.1379 33.7911 53.2193 33.5388 53.3861C33.2866 53.5509 33.1605 53.7686 33.1605 54.0411C33.1605 54.1876 33.2012 54.328 33.2846 54.4582C33.368 54.5904 33.488 54.6962 33.6446 54.7775C33.8033 54.8589 33.9904 54.8976 34.2081 54.8976C34.4258 54.8976 34.6556 54.8548 34.8733 54.7714C35.091 54.688 35.2679 54.5822 35.4042 54.4582Z" fill="#222222" fill-opacity="0.3"/>
<path d="M38.5046 57.0398C38.6388 57.0703 38.7649 57.0967 38.8829 57.1191C38.9989 57.1415 39.0986 57.1537 39.182 57.1537C39.3244 57.1537 39.4423 57.1191 39.5359 57.0479C39.6295 56.9767 39.721 56.8506 39.8126 56.6696C39.9021 56.4885 39.9977 56.2342 40.0953 55.9087L37.7621 50.042H39.3284L40.9172 54.3749L42.3147 50.042H43.757L41.2772 57.0744C41.1877 57.3348 41.0494 57.5728 40.8663 57.7843C40.6812 57.9979 40.4534 58.1647 40.1787 58.2888C39.9041 58.4129 39.599 58.4739 39.2593 58.4739C39.1392 58.4739 39.0192 58.4638 38.8992 58.4455C38.7792 58.4271 38.647 58.3946 38.5046 58.3498V57.0418V57.0398Z" fill="#222222" fill-opacity="0.3"/>
<path d="M47.1277 56.0021C46.6456 56.0021 46.2143 55.9228 45.8319 55.7621C45.4494 55.6014 45.1219 55.3797 44.8514 55.0928C44.5808 54.806 44.3733 54.4826 44.2269 54.1184C44.0804 53.7543 44.0072 53.3719 44.0072 52.9711C44.0072 52.4219 44.1333 51.9174 44.3855 51.4597C44.6378 51.002 44.9958 50.6358 45.4617 50.3612C45.9275 50.0866 46.4808 49.9482 47.1196 49.9482C47.7583 49.9482 48.3076 50.0866 48.7653 50.3653C49.223 50.644 49.5647 51.0081 49.7905 51.4577L48.3137 51.9093C48.1855 51.6916 48.0167 51.5248 47.8071 51.4068C47.5976 51.2908 47.3637 51.2319 47.1074 51.2319C46.8226 51.2319 46.5601 51.303 46.3242 51.4475C46.0882 51.5919 45.9011 51.7933 45.7668 52.0557C45.6305 52.3181 45.5634 52.6212 45.5634 52.9691C45.5634 53.317 45.6325 53.6078 45.7729 53.8703C45.9112 54.1327 46.0984 54.3381 46.3303 54.4887C46.5642 54.6392 46.8226 54.7145 47.1074 54.7145C47.2884 54.7145 47.4593 54.684 47.62 54.625C47.7807 54.5639 47.9272 54.4826 48.0533 54.3768C48.1814 54.271 48.275 54.151 48.336 54.0167L49.8129 54.4683C49.6766 54.7613 49.4793 55.0237 49.2209 55.2576C48.9606 55.4916 48.6575 55.6726 48.3076 55.8048C47.9577 55.9371 47.5651 56.0021 47.1297 56.0021H47.1277Z" fill="#222222" fill-opacity="0.3"/>
<path d="M50.3275 54.1652C50.3275 53.7869 50.4353 53.4553 50.6489 53.1684C50.8625 52.8816 51.1615 52.6619 51.546 52.5053C51.9284 52.3486 52.3678 52.2713 52.8642 52.2713C53.1124 52.2713 53.3646 52.2897 53.6189 52.3283C53.8732 52.367 54.0949 52.426 54.2841 52.5094V52.194C54.2841 51.8258 54.1722 51.5411 53.9505 51.3417C53.7287 51.1423 53.3992 51.0427 52.9639 51.0427C52.6404 51.0427 52.3332 51.0996 52.0403 51.2115C51.7474 51.3234 51.4382 51.4902 51.1168 51.7079L50.6326 50.7152C51.0232 50.4609 51.4239 50.2676 51.8328 50.1395C52.2417 50.0113 52.673 49.9482 53.1246 49.9482C53.9667 49.9482 54.6218 50.1557 55.0917 50.5707C55.5616 50.9857 55.7955 51.5777 55.7955 52.3486V54.2039C55.7955 54.3605 55.824 54.4704 55.881 54.5375C55.9379 54.6046 56.0295 54.6453 56.1576 54.6595V55.8882C56.0213 55.9106 55.8993 55.9289 55.7915 55.9452C55.6816 55.9594 55.5901 55.9676 55.5148 55.9676C55.2137 55.9676 54.9879 55.9004 54.8333 55.7641C54.6787 55.6278 54.5831 55.4631 54.5465 55.2678L54.5119 54.9626C54.2556 55.2942 53.9362 55.5485 53.5538 55.7296C53.1714 55.9106 52.7808 56.0001 52.3821 56.0001C51.9834 56.0001 51.6396 55.9208 51.3283 55.7601C51.0171 55.6014 50.773 55.3817 50.596 55.103C50.419 54.8243 50.3316 54.511 50.3316 54.1612L50.3275 54.1652ZM54.0034 54.4582C54.0847 54.3707 54.1539 54.2832 54.2068 54.1937C54.2597 54.1062 54.2861 54.0249 54.2861 53.9516V53.3698C54.1051 53.2966 53.9098 53.2396 53.7003 53.199C53.4887 53.1583 53.2914 53.1379 53.1022 53.1379C52.7116 53.1379 52.3902 53.2193 52.138 53.3861C51.8857 53.5509 51.7596 53.7686 51.7596 54.0411C51.7596 54.1876 51.8003 54.328 51.8837 54.4582C51.9671 54.5904 52.0871 54.6962 52.2437 54.7775C52.4024 54.8589 52.5896 54.8976 52.8072 54.8976C53.0249 54.8976 53.2548 54.8548 53.4724 54.7714C53.6901 54.688 53.8671 54.5822 54.0034 54.4582Z" fill="#222222" fill-opacity="0.3"/>
<path d="M62.6934 55.8912H61.182V52.6242C61.182 52.1583 61.0986 51.8166 60.9338 51.6009C60.769 51.3873 60.5391 51.2795 60.2462 51.2795C60.0428 51.2795 59.8394 51.3304 59.6319 51.4341C59.4244 51.5379 59.2393 51.6782 59.0745 51.8573C58.9097 52.0363 58.7897 52.2438 58.7144 52.4797V55.8912H57.203V50.0407H58.5659V51.131C58.7165 50.8788 58.9077 50.6652 59.1416 50.4902C59.3755 50.3153 59.6441 50.181 59.9472 50.0895C60.2523 49.9959 60.5737 49.9512 60.9114 49.9512C61.2796 49.9512 61.5827 50.0163 61.8187 50.1465C62.0546 50.2766 62.2357 50.4516 62.3598 50.6693C62.4839 50.889 62.5693 51.1351 62.6202 51.4097C62.669 51.6843 62.6934 51.963 62.6934 52.2458V55.8912Z" fill="#222222" fill-opacity="0.3"/>
<path d="M66.8637 55.8904V47.8877H70.4033C70.7715 47.8877 71.1112 47.963 71.4245 48.1135C71.7377 48.264 72.0063 48.4675 72.2361 48.7217C72.466 48.978 72.643 49.2628 72.765 49.5781C72.8891 49.8935 72.9502 50.2169 72.9502 50.5485C72.9502 50.8801 72.8912 51.2116 72.7752 51.5229C72.6593 51.8341 72.4925 52.1067 72.2728 52.3406C72.0551 52.5746 71.7988 52.7536 71.5058 52.8818L73.3326 55.8924H71.6198L69.9741 53.2093H68.4179V55.8924H66.8617L66.8637 55.8904ZM68.4199 51.8443H70.3707C70.566 51.8443 70.7389 51.7853 70.8895 51.6693C71.04 51.5534 71.16 51.3968 71.2495 51.2015C71.339 51.0062 71.3838 50.7885 71.3838 50.5485C71.3838 50.2922 71.3309 50.0704 71.2251 49.8772C71.1193 49.686 70.9871 49.5334 70.8244 49.4215C70.6616 49.3096 70.4887 49.2527 70.2995 49.2527H68.4179V51.8463L68.4199 51.8443Z" fill="#222222" fill-opacity="0.3"/>
<path d="M76.7503 56.0021C76.2764 56.0021 75.8492 55.9228 75.4647 55.7621C75.0823 55.6014 74.7547 55.3837 74.4842 55.1051C74.2136 54.8264 74.0061 54.507 73.8597 54.1469C73.7132 53.7869 73.64 53.4065 73.64 53.0037C73.64 52.4463 73.7661 51.9377 74.0184 51.476C74.2706 51.0142 74.6307 50.646 75.1006 50.3673C75.5705 50.0886 76.1238 49.9482 76.7626 49.9482C77.4013 49.9482 77.9607 50.0886 78.4205 50.3673C78.8782 50.646 79.2301 51.0142 79.4742 51.4719C79.7183 51.9296 79.8404 52.4239 79.8404 52.9508C79.8404 53.0403 79.8363 53.1318 79.8282 53.2234C79.82 53.317 79.8139 53.3922 79.8058 53.4532H75.2409C75.2714 53.7462 75.3589 54.0045 75.5054 54.2242C75.6518 54.4439 75.839 54.6107 76.0689 54.7246C76.2987 54.8386 76.5449 54.8955 76.8073 54.8955C77.1084 54.8955 77.3911 54.8223 77.6576 54.6758C77.9241 54.5294 78.1072 54.3361 78.2048 54.0961L79.5006 54.4561C79.3582 54.7572 79.1528 55.0237 78.8863 55.2556C78.6198 55.4895 78.3065 55.6706 77.9444 55.8028C77.5844 55.935 77.1857 56.0001 76.7503 56.0001V56.0021ZM75.2063 52.4972H78.2943C78.2638 52.2042 78.1804 51.9479 78.0401 51.7323C77.9017 51.5146 77.7186 51.3458 77.4928 51.2257C77.267 51.1037 77.0148 51.0447 76.7381 51.0447C76.4615 51.0447 76.2214 51.1057 75.9997 51.2257C75.778 51.3478 75.5969 51.5166 75.4586 51.7323C75.3203 51.9479 75.2348 52.2042 75.2043 52.4972H75.2063Z" fill="#222222" fill-opacity="0.3"/>
<path d="M82.9405 56.003C82.436 56.003 81.9559 55.9196 81.4982 55.7549C81.0405 55.5901 80.6459 55.346 80.3143 55.0225L80.8554 54.042C81.2094 54.3268 81.5552 54.5384 81.899 54.6727C82.2428 54.8069 82.5703 54.8761 82.8856 54.8761C83.1785 54.8761 83.4145 54.8252 83.5894 54.7235C83.7644 54.6218 83.8539 54.4692 83.8539 54.2678C83.8539 54.1275 83.8051 54.0176 83.7074 53.9403C83.6098 53.863 83.4694 53.7939 83.2843 53.7349C83.0992 53.6759 82.8774 53.6087 82.613 53.5355C82.1777 53.3951 81.8135 53.2568 81.5186 53.1246C81.2256 52.9903 81.0059 52.8215 80.8595 52.6181C80.713 52.4146 80.6398 52.1522 80.6398 51.8328C80.6398 51.4463 80.7395 51.1148 80.9388 50.8361C81.1382 50.5574 81.4169 50.3417 81.7729 50.1851C82.1288 50.0305 82.5479 49.9512 83.03 49.9512C83.4511 49.9512 83.8498 50.0163 84.2241 50.1485C84.6005 50.2807 84.9422 50.4923 85.2494 50.7852L84.6411 51.7433C84.3401 51.5094 84.0553 51.3385 83.7847 51.2307C83.5142 51.1209 83.2395 51.068 82.9629 51.068C82.8042 51.068 82.6557 51.0863 82.5174 51.1229C82.3791 51.1595 82.2651 51.2205 82.1797 51.306C82.0922 51.3914 82.0495 51.5114 82.0495 51.666C82.0495 51.8064 82.0882 51.9162 82.1675 51.9936C82.2468 52.0709 82.3669 52.14 82.5276 52.199C82.6883 52.258 82.8856 52.3251 83.1195 52.3984C83.5935 52.5306 83.9922 52.6689 84.3197 52.8093C84.6472 52.9496 84.8934 53.1226 85.0582 53.326C85.2229 53.5294 85.3063 53.8081 85.3063 54.1641C85.3063 54.7418 85.0927 55.1914 84.6635 55.5189C84.2363 55.8444 83.6606 56.0071 82.9385 56.0071L82.9405 56.003Z" fill="#222222" fill-opacity="0.3"/>
<path d="M89.8711 56.003C89.4134 56.003 89.0085 55.9013 88.6586 55.6959C88.3088 55.4924 88.0362 55.2138 87.8409 54.8659V58.2916H86.3294V50.0407H87.6476V51.0537C87.8734 50.712 88.1582 50.4435 88.504 50.2461C88.8499 50.0488 89.2445 49.9512 89.688 49.9512C90.0867 49.9512 90.4529 50.0285 90.7865 50.1851C91.1201 50.3417 91.411 50.5594 91.6592 50.8381C91.9073 51.1168 92.1006 51.4362 92.2389 51.7962C92.3772 52.1563 92.4484 52.5448 92.4484 52.9618C92.4484 53.5274 92.3366 54.04 92.1148 54.4997C91.8931 54.9615 91.588 55.3256 91.2015 55.5982C90.8149 55.8688 90.3695 56.0051 89.865 56.0051L89.8711 56.003ZM89.3645 54.7174C89.5985 54.7174 89.808 54.6686 89.9951 54.573C90.1823 54.4774 90.3471 54.3472 90.4854 54.1804C90.6237 54.0136 90.7295 53.8264 90.8007 53.6169C90.8719 53.4073 90.9085 53.1876 90.9085 52.9598C90.9085 52.7157 90.8699 52.4919 90.7905 52.2844C90.7112 52.079 90.5973 51.8959 90.4467 51.7372C90.2962 51.5786 90.1213 51.4545 89.9219 51.367C89.7226 51.2795 89.5069 51.2348 89.273 51.2348C89.1306 51.2348 88.9862 51.2592 88.8397 51.306C88.6932 51.3528 88.5529 51.4219 88.4166 51.5094C88.2803 51.5969 88.1623 51.7006 88.0606 51.8166C87.9589 51.9346 87.8856 52.0627 87.8409 52.201V53.5721C87.9304 53.7857 88.0524 53.979 88.207 54.1559C88.3616 54.3329 88.5386 54.4692 88.7421 54.5689C88.9455 54.6686 89.1509 54.7174 89.3625 54.7174H89.3645Z" fill="#222222" fill-opacity="0.3"/>
<path d="M93.4227 53.704V50.0403H94.9321V53.3703C94.9321 53.8158 95.0156 54.1515 95.1803 54.3793C95.3451 54.6051 95.5892 54.719 95.9127 54.719C96.1079 54.719 96.3012 54.6804 96.4924 54.6031C96.6836 54.5258 96.8606 54.4098 97.0234 54.2552C97.1861 54.1006 97.3224 53.9053 97.4343 53.6694V50.0403H98.9437V54.2064C98.9437 54.3631 98.9722 54.4729 99.0291 54.54C99.0861 54.6072 99.1776 54.6478 99.3058 54.6621V55.8908C99.1552 55.9131 99.0291 55.9294 98.9274 55.9416C98.8257 55.9538 98.7341 55.9579 98.6507 55.9579C98.3802 55.9579 98.1605 55.8969 97.9917 55.7728C97.8228 55.6507 97.7231 55.4799 97.6926 55.2642L97.658 54.7963C97.3956 55.191 97.0559 55.49 96.6429 55.6955C96.23 55.9009 95.7743 56.0026 95.28 56.0026C94.6718 56.0026 94.21 55.8074 93.8927 55.4168C93.5753 55.0262 93.4187 54.4546 93.4187 53.7019L93.4227 53.704Z" fill="#222222" fill-opacity="0.3"/>
<path d="M103.806 56.0026C103.354 56.0026 102.953 55.9009 102.599 55.6975C102.245 55.494 101.969 55.2174 101.765 54.8634V55.8887H100.447V47.6602H101.959V51.0879C102.168 50.7339 102.445 50.4572 102.786 50.2538C103.128 50.0504 103.529 49.9487 103.987 49.9487C104.369 49.9487 104.719 50.028 105.034 50.1887C105.35 50.3494 105.622 50.5691 105.852 50.8519C106.082 51.1346 106.259 51.4581 106.383 51.8222C106.507 52.1864 106.568 52.5769 106.568 52.9919C106.568 53.4069 106.499 53.7975 106.359 54.1616C106.22 54.5257 106.025 54.8471 105.779 55.1258C105.531 55.4045 105.24 55.6202 104.906 55.7727C104.57 55.9253 104.204 56.0006 103.808 56.0006L103.806 56.0026ZM103.389 54.717C103.629 54.717 103.848 54.6702 104.048 54.5786C104.247 54.4871 104.42 54.363 104.566 54.2084C104.713 54.0538 104.825 53.8707 104.904 53.6612C104.983 53.4517 105.022 53.232 105.022 53.0041C105.022 52.6868 104.957 52.3938 104.825 52.1253C104.693 51.8568 104.514 51.6412 104.284 51.4784C104.054 51.3157 103.785 51.2343 103.478 51.2343C103.26 51.2343 103.051 51.2852 102.852 51.3828C102.652 51.4805 102.475 51.6168 102.323 51.7856C102.168 51.9544 102.046 52.1477 101.956 52.3613V53.7425C102.001 53.891 102.074 54.0233 102.176 54.1413C102.278 54.2592 102.396 54.361 102.532 54.4444C102.666 54.5298 102.809 54.5949 102.955 54.6437C103.102 54.6925 103.246 54.7149 103.389 54.7149V54.717Z" fill="#222222" fill-opacity="0.3"/>
<path d="M107.581 47.6621H109.093V54.0171C109.093 54.2897 109.137 54.4707 109.227 54.5663C109.316 54.6619 109.44 54.7067 109.599 54.7067C109.719 54.7067 109.843 54.6925 109.971 54.6619C110.1 54.6314 110.211 54.5948 110.309 54.5501L110.513 55.6994C110.309 55.7971 110.073 55.8723 109.803 55.9252C109.532 55.9781 109.288 56.0045 109.07 56.0045C108.596 56.0045 108.23 55.8784 107.972 55.6262C107.713 55.3739 107.583 55.0139 107.583 54.546V47.6621H107.581Z" fill="#222222" fill-opacity="0.3"/>
<path d="M111.165 49.1613V47.6621H112.677V49.1613H111.165ZM111.165 55.8906V49.9832H112.677V55.8906H111.165Z" fill="#222222" fill-opacity="0.3"/>
<path d="M118.076 55.8906L116.351 53.3621L115.551 54.1452V55.8906H114.04V47.6621H115.551V52.6704L117.929 50.0422H119.53L117.331 52.526L119.687 55.8927H118.076V55.8906Z" fill="#222222" fill-opacity="0.3"/>
<path d="M119.868 54.1652C119.868 53.7869 119.976 53.4553 120.189 53.1684C120.403 52.8816 120.702 52.6619 121.087 52.5053C121.469 52.3486 121.908 52.2713 122.405 52.2713C122.653 52.2713 122.905 52.2897 123.159 52.3283C123.414 52.367 123.635 52.426 123.825 52.5094V52.194C123.825 51.8258 123.713 51.5411 123.491 51.3417C123.269 51.1423 122.94 51.0427 122.504 51.0427C122.181 51.0427 121.874 51.0996 121.581 51.2115C121.288 51.3234 120.979 51.4902 120.657 51.7079L120.173 50.7152C120.564 50.4609 120.964 50.2676 121.373 50.1395C121.782 50.0113 122.213 49.9482 122.665 49.9482C123.507 49.9482 124.162 50.1557 124.632 50.5707C125.102 50.9857 125.336 51.5777 125.336 52.3486V54.2039C125.336 54.3605 125.365 54.4704 125.421 54.5375C125.478 54.6046 125.57 54.6453 125.698 54.6595V55.8882C125.562 55.9106 125.44 55.9289 125.332 55.9452C125.222 55.9594 125.131 55.9676 125.055 55.9676C124.754 55.9676 124.528 55.9004 124.374 55.7641C124.219 55.6278 124.124 55.4631 124.087 55.2678L124.052 54.9626C123.796 55.2942 123.477 55.5485 123.094 55.7296C122.712 55.9106 122.321 56.0001 121.923 56.0001C121.524 56.0001 121.18 55.9208 120.869 55.7601C120.558 55.6014 120.314 55.3817 120.137 55.103C119.96 54.8243 119.872 54.511 119.872 54.1612L119.868 54.1652ZM123.544 54.4582C123.625 54.3707 123.694 54.2832 123.747 54.1937C123.8 54.1062 123.827 54.0249 123.827 53.9516V53.3698C123.646 53.2966 123.45 53.2396 123.241 53.199C123.029 53.1583 122.832 53.1379 122.643 53.1379C122.252 53.1379 121.931 53.2193 121.678 53.3861C121.426 53.5509 121.3 53.7686 121.3 54.0411C121.3 54.1876 121.341 54.328 121.424 54.4582C121.508 54.5904 121.628 54.6962 121.784 54.7775C121.943 54.8589 122.13 54.8976 122.348 54.8976C122.565 54.8976 122.795 54.8548 123.013 54.7714C123.231 54.688 123.408 54.5822 123.544 54.4582Z" fill="#222222" fill-opacity="0.3"/>
<path d="M128.919 56.003C128.414 56.003 127.934 55.9196 127.476 55.7549C127.019 55.5901 126.624 55.346 126.292 55.0225L126.833 54.042C127.187 54.3268 127.533 54.5384 127.877 54.6727C128.221 54.8069 128.548 54.8761 128.864 54.8761C129.157 54.8761 129.393 54.8252 129.567 54.7235C129.742 54.6218 129.832 54.4692 129.832 54.2678C129.832 54.1275 129.783 54.0176 129.685 53.9403C129.588 53.863 129.447 53.7939 129.262 53.7349C129.077 53.6759 128.855 53.6087 128.591 53.5355C128.156 53.3951 127.792 53.2568 127.497 53.1246C127.204 52.9903 126.984 52.8215 126.838 52.6181C126.691 52.4146 126.618 52.1522 126.618 51.8328C126.618 51.4463 126.717 51.1148 126.917 50.8361C127.116 50.5574 127.395 50.3417 127.751 50.1851C128.107 50.0305 128.526 49.9512 129.008 49.9512C129.429 49.9512 129.828 50.0163 130.202 50.1485C130.578 50.2807 130.92 50.4923 131.227 50.7852L130.619 51.7433C130.318 51.5094 130.033 51.3385 129.763 51.2307C129.492 51.1209 129.218 51.068 128.941 51.068C128.782 51.068 128.634 51.0863 128.495 51.1229C128.357 51.1595 128.243 51.2205 128.158 51.306C128.07 51.3914 128.028 51.5114 128.028 51.666C128.028 51.8064 128.066 51.9162 128.146 51.9936C128.225 52.0709 128.345 52.14 128.506 52.199C128.666 52.258 128.864 52.3251 129.098 52.3984C129.572 52.5306 129.97 52.6689 130.298 52.8093C130.625 52.9496 130.871 53.1226 131.036 53.326C131.201 53.5294 131.284 53.8081 131.284 54.1641C131.284 54.7418 131.071 55.1914 130.642 55.5189C130.214 55.8444 129.639 56.0071 128.916 56.0071L128.919 56.003Z" fill="#222222" fill-opacity="0.3"/>
<path d="M132.312 55.8908V50.0403H133.823V55.8908H132.312Z" fill="#222222" fill-opacity="0.3"/>
<path d="M19.5879 69.419V64.1666L17.5353 68.0784H16.6667L14.6141 64.1666V69.419H13.058V61.4163H14.726L17.0939 65.9709L19.4841 61.4163H21.142V69.419H19.5858H19.5879Z" fill="#222222" fill-opacity="0.3"/>
<path d="M25.2591 69.5305C24.6122 69.5305 24.0589 69.3901 23.5972 69.1114C23.1354 68.8327 22.7794 68.4625 22.5312 68.0007C22.283 67.5389 22.1549 67.0406 22.1488 66.5055C22.1488 66.4323 22.1528 66.3469 22.1589 66.2553C22.1671 66.1618 22.1732 66.0865 22.1813 66.0255H26.7462C26.7238 65.7244 26.6363 65.4661 26.4858 65.2484C26.3352 65.0307 26.1481 64.8659 25.9223 64.752C25.6965 64.6381 25.4524 64.5812 25.19 64.5812C24.8808 64.5812 24.5939 64.6544 24.3274 64.8009C24.061 64.9473 23.8779 65.1406 23.7802 65.3806L22.4946 65.0206C22.637 64.7195 22.8404 64.453 23.1028 64.2211C23.3653 63.9892 23.6785 63.8061 24.0386 63.6739C24.3986 63.5417 24.7974 63.4766 25.2327 63.4766C25.7128 63.4766 26.1461 63.5559 26.5285 63.7166C26.9109 63.8773 27.2364 64.095 27.5029 64.3696C27.7694 64.6442 27.9769 64.9636 28.1234 65.3277C28.2698 65.6919 28.3431 66.0784 28.3431 66.4872C28.3431 67.0365 28.219 67.543 27.9708 68.0028C27.7226 68.4625 27.3686 68.8327 26.9048 69.1114C26.4431 69.3901 25.8918 69.5305 25.253 69.5305H25.2591ZM25.2713 68.436C25.55 68.436 25.7962 68.373 26.0098 68.2489C26.2234 68.1248 26.4003 67.9519 26.5407 67.7302C26.679 67.5105 26.7604 67.2521 26.7828 66.9592H23.7172C23.7396 67.2541 23.825 67.5105 23.9715 67.7302C24.1179 67.9499 24.3051 68.1228 24.5288 68.2489C24.7546 68.373 25.0028 68.436 25.2734 68.436H25.2713Z" fill="#222222" fill-opacity="0.3"/>
<path d="M28.9901 66.4997C28.9901 65.9342 29.102 65.4236 29.3278 64.9679C29.5536 64.5102 29.8649 64.1481 30.2636 63.8817C30.6623 63.6131 31.1159 63.4809 31.6265 63.4809C32.0618 63.4809 32.4544 63.5887 32.8043 63.8023C33.1542 64.0159 33.4268 64.2885 33.6221 64.6201V61.1924H35.1335V67.7304C35.1335 67.8891 35.16 68.001 35.2129 68.0681C35.2658 68.1352 35.3553 68.178 35.4834 68.1922V69.4209C35.221 69.4738 35.0054 69.5002 34.8406 69.5002C34.5701 69.5002 34.3463 69.4331 34.1693 69.2968C33.9923 69.1605 33.8927 68.9856 33.8703 68.7659L33.8479 68.3936C33.6302 68.7618 33.3353 69.0446 32.963 69.2398C32.5907 69.4351 32.2022 69.5328 31.7954 69.5328C31.3885 69.5328 31.0162 69.4555 30.6745 69.2988C30.3327 69.1422 30.0357 68.9266 29.7835 68.652C29.5312 68.3773 29.336 68.0559 29.1976 67.6877C29.0593 67.3195 28.9881 66.9249 28.9881 66.4997H28.9901ZM33.6221 67.2748V65.8935C33.5468 65.6799 33.4268 65.4887 33.262 65.3178C33.0973 65.149 32.9122 65.0147 32.7108 64.915C32.5094 64.8154 32.3039 64.7665 32.1025 64.7665C31.8686 64.7665 31.6591 64.8154 31.4719 64.911C31.2848 65.0066 31.12 65.1368 30.9817 65.2975C30.8433 65.4582 30.7375 65.6474 30.6663 65.861C30.5952 66.0746 30.5585 66.3004 30.5585 66.5363C30.5585 66.7723 30.5972 66.9961 30.6765 67.2056C30.7559 67.4151 30.8698 67.5982 31.0203 67.7528C31.1708 67.9074 31.3458 68.0295 31.5451 68.1169C31.7445 68.2044 31.9601 68.2492 32.1941 68.2492C32.3365 68.2492 32.4809 68.2248 32.6274 68.178C32.7738 68.1291 32.9122 68.0641 33.0444 67.9786C33.1766 67.8932 33.2926 67.7915 33.3943 67.6694C33.496 67.5474 33.5733 67.4172 33.6241 67.2768L33.6221 67.2748Z" fill="#222222" fill-opacity="0.3"/>
<path d="M39.2816 69.5305C38.6347 69.5305 38.0814 69.3901 37.6196 69.1114C37.1578 68.8327 36.8019 68.4625 36.5537 68.0007C36.3055 67.5389 36.1773 67.0406 36.1712 66.5055C36.1712 66.4323 36.1753 66.3469 36.1814 66.2553C36.1895 66.1618 36.1956 66.0865 36.2038 66.0255H40.7686C40.7462 65.7244 40.6588 65.4661 40.5082 65.2484C40.3577 65.0307 40.1706 64.8659 39.9448 64.752C39.719 64.6381 39.4748 64.5812 39.2124 64.5812C38.9032 64.5812 38.6164 64.6544 38.3499 64.8009C38.0834 64.9473 37.9003 65.1406 37.8027 65.3806L36.5171 65.0206C36.6595 64.7195 36.8629 64.453 37.1253 64.2211C37.3877 63.9892 37.701 63.8061 38.061 63.6739C38.4211 63.5417 38.8198 63.4766 39.2552 63.4766C39.7352 63.4766 40.1685 63.5559 40.551 63.7166C40.9334 63.8773 41.2589 64.095 41.5254 64.3696C41.7919 64.6442 41.9993 64.9636 42.1458 65.3277C42.2923 65.6919 42.3655 66.0784 42.3655 66.4872C42.3655 67.0365 42.2414 67.543 41.9932 68.0028C41.7451 68.4625 41.3911 68.8327 40.9273 69.1114C40.4655 69.3901 39.9142 69.5305 39.2755 69.5305H39.2816ZM39.2938 68.436C39.5725 68.436 39.8186 68.373 40.0322 68.2489C40.2458 68.1248 40.4228 67.9519 40.5632 67.7302C40.7015 67.5105 40.7829 67.2521 40.8052 66.9592H37.7396C37.762 67.2541 37.8475 67.5105 37.9939 67.7302C38.1404 67.9499 38.3275 68.1228 38.5513 68.2489C38.7771 68.373 39.0253 68.436 39.2958 68.436H39.2938Z" fill="#222222" fill-opacity="0.3"/>
<path d="M48.8628 69.4185H47.3514V66.1515C47.3514 65.6857 47.268 65.3439 47.1032 65.1283C46.9384 64.9147 46.7086 64.8069 46.4156 64.8069C46.2122 64.8069 46.0088 64.8577 45.8013 64.9615C45.5938 65.0652 45.4087 65.2056 45.2439 65.3846C45.0791 65.5636 44.9591 65.7711 44.8839 66.0071V69.4185H43.3724V63.568H44.7353V64.6584C44.8859 64.4061 45.0771 64.1925 45.311 64.0176C45.545 63.8427 45.8135 63.7084 46.1166 63.6168C46.4217 63.5233 46.7432 63.4785 47.0808 63.4785C47.449 63.4785 47.7521 63.5436 47.9881 63.6738C48.2241 63.804 48.4051 63.9789 48.5292 64.1966C48.6533 64.4163 48.7387 64.6624 48.7896 64.9371C48.8384 65.2117 48.8628 65.4904 48.8628 65.7731V69.4185Z" fill="#222222" fill-opacity="0.3"/>
<path d="M50.1809 62.6877V61.1885H51.6923V62.6877H50.1809ZM50.1809 69.417V63.5096H51.6923V69.417H50.1809Z" fill="#222222" fill-opacity="0.3"/>
<path d="M53.1814 70.5684C53.3157 70.5989 53.4418 70.6253 53.5598 70.6477C53.6757 70.6701 53.7754 70.6823 53.8588 70.6823C54.0012 70.6823 54.1192 70.6477 54.2128 70.5765C54.3063 70.5053 54.3979 70.3792 54.4894 70.1981C54.5789 70.0171 54.6745 69.7628 54.7722 69.4373L52.4389 63.5706H54.0053L55.594 67.9035L56.9915 63.5706H58.4338L55.9541 70.6029C55.8646 70.8633 55.7262 71.1013 55.5432 71.3129C55.358 71.5265 55.1302 71.6933 54.8556 71.8174C54.581 71.9415 54.2758 72.0025 53.9361 72.0025C53.8161 72.0025 53.6961 71.9923 53.576 71.974C53.456 71.9557 53.3238 71.9232 53.1814 71.8784V70.5704V70.5684Z" fill="#222222" fill-opacity="0.3"/>
<path d="M59.3797 70.5684C59.514 70.5989 59.6401 70.6253 59.7581 70.6477C59.874 70.6701 59.9737 70.6823 60.0571 70.6823C60.1995 70.6823 60.3175 70.6477 60.4111 70.5765C60.5046 70.5053 60.5962 70.3792 60.6877 70.1981C60.7772 70.0171 60.8728 69.7628 60.9705 69.4373L58.6372 63.5706H60.2036L61.7923 67.9035L63.1898 63.5706H64.6321L62.1524 70.6029C62.0629 70.8633 61.9245 71.1013 61.7415 71.3129C61.5564 71.5265 61.3285 71.6933 61.0539 71.8174C60.7793 71.9415 60.4741 72.0025 60.1344 72.0025C60.0144 72.0025 59.8944 71.9923 59.7743 71.974C59.6543 71.9557 59.5221 71.9232 59.3797 71.8784V70.5704V70.5684Z" fill="#222222" fill-opacity="0.3"/>
<path d="M67.9481 69.5305C67.3012 69.5305 66.7479 69.3901 66.2861 69.1114C65.8244 68.8327 65.4684 68.4625 65.2202 68.0007C64.972 67.5389 64.8438 67.0406 64.8377 66.5055C64.8377 66.4323 64.8418 66.3469 64.8479 66.2553C64.856 66.1618 64.8621 66.0865 64.8703 66.0255H69.4351C69.4128 65.7244 69.3253 65.4661 69.1748 65.2484C69.0242 65.0307 68.8371 64.8659 68.6113 64.752C68.3855 64.6381 68.1414 64.5812 67.8789 64.5812C67.5697 64.5812 67.2829 64.6544 67.0164 64.8009C66.7499 64.9473 66.5669 65.1406 66.4692 65.3806L65.1836 65.0206C65.326 64.7195 65.5294 64.453 65.7918 64.2211C66.0542 63.9892 66.3675 63.8061 66.7276 63.6739C67.0876 63.5417 67.4863 63.4766 67.9217 63.4766C68.4017 63.4766 68.835 63.5559 69.2175 63.7166C69.5999 63.8773 69.9254 64.095 70.1919 64.3696C70.4584 64.6442 70.6659 64.9636 70.8123 65.3277C70.9588 65.6919 71.032 66.0784 71.032 66.4872C71.032 67.0365 70.9079 67.543 70.6598 68.0028C70.4116 68.4625 70.0576 68.8327 69.5938 69.1114C69.132 69.3901 68.5808 69.5305 67.942 69.5305H67.9481ZM67.9603 68.436C68.239 68.436 68.4851 68.373 68.6987 68.2489C68.9123 68.1248 69.0893 67.9519 69.2297 67.7302C69.368 67.5105 69.4494 67.2521 69.4718 66.9592H66.4061C66.4285 67.2541 66.514 67.5105 66.6604 67.7302C66.8069 67.9499 66.994 68.1228 67.2178 68.2489C67.4436 68.373 67.6918 68.436 67.9623 68.436H67.9603Z" fill="#222222" fill-opacity="0.3"/>
<path d="M75.489 69.1261C75.3608 69.179 75.2062 69.238 75.0272 69.3071C74.8461 69.3742 74.6529 69.4292 74.4474 69.4699C74.2399 69.5105 74.0324 69.5329 73.8209 69.5329C73.5422 69.5329 73.2879 69.4841 73.054 69.3885C72.82 69.2908 72.6349 69.1362 72.4966 68.9247C72.3583 68.7131 72.2891 68.4344 72.2891 68.0927V64.7321H71.51V63.5706H72.2891V61.6543H73.7985V63.5706H75.0394V64.7321H73.7985V67.58C73.8066 67.7794 73.8616 67.9238 73.9673 68.0133C74.0731 68.1028 74.2033 68.1476 74.362 68.1476C74.5207 68.1476 74.6732 68.1212 74.8238 68.0683C74.9743 68.0154 75.0943 67.9706 75.1838 67.932L75.489 69.1261Z" fill="#222222" fill-opacity="0.3"/>
<path d="M80.6843 64.2784V69.419H79.1281V61.4163H80.369L84.5067 66.691V61.4264H86.0629V69.419H84.7671L80.6864 64.2784H80.6843Z" fill="#222222" fill-opacity="0.3"/>
<path d="M87.1107 67.6935C87.1107 67.3152 87.2185 66.9836 87.4321 66.6968C87.6457 66.4099 87.9447 66.1902 88.3292 66.0336C88.7116 65.877 89.151 65.7997 89.6474 65.7997C89.8956 65.7997 90.1478 65.818 90.4021 65.8566C90.6564 65.8953 90.8781 65.9543 91.0673 66.0377V65.7224C91.0673 65.3542 90.9554 65.0694 90.7337 64.87C90.5119 64.6707 90.1824 64.571 89.7471 64.571C89.4236 64.571 89.1164 64.6279 88.8235 64.7398C88.5306 64.8517 88.2214 65.0185 87.9 65.2362L87.4158 64.2435C87.8064 63.9892 88.2071 63.7959 88.616 63.6678C89.0249 63.5396 89.4562 63.4766 89.9078 63.4766C90.7499 63.4766 91.405 63.6841 91.8749 64.099C92.3448 64.514 92.5787 65.106 92.5787 65.877V67.7322C92.5787 67.8888 92.6072 67.9987 92.6642 68.0658C92.7211 68.1329 92.8127 68.1736 92.9408 68.1879V69.4165C92.8045 69.4389 92.6825 69.4572 92.5747 69.4735C92.4648 69.4877 92.3733 69.4959 92.298 69.4959C91.9969 69.4959 91.7711 69.4288 91.6165 69.2925C91.4619 69.1562 91.3663 68.9914 91.3297 68.7961L91.2951 68.491C91.0388 68.8225 90.7194 69.0768 90.337 69.2579C89.9546 69.4389 89.564 69.5284 89.1653 69.5284C88.7666 69.5284 88.4228 69.4491 88.1115 69.2884C87.8003 69.1297 87.5562 68.91 87.3792 68.6313C87.2022 68.3526 87.1148 68.0394 87.1148 67.6895L87.1107 67.6935ZM90.7866 67.9865C90.8679 67.899 90.9371 67.8115 90.99 67.722C91.0429 67.6346 91.0693 67.5532 91.0693 67.4799V66.8982C90.8883 66.8249 90.693 66.768 90.4835 66.7273C90.2719 66.6866 90.0746 66.6663 89.8854 66.6663C89.4948 66.6663 89.1734 66.7476 88.9212 66.9144C88.6689 67.0792 88.5428 67.2969 88.5428 67.5695C88.5428 67.7159 88.5835 67.8563 88.6669 67.9865C88.7503 68.1187 88.8703 68.2245 89.0269 68.3059C89.1856 68.3872 89.3728 68.4259 89.5904 68.4259C89.8081 68.4259 90.038 68.3832 90.2556 68.2997C90.4733 68.2163 90.6503 68.1106 90.7866 67.9865Z" fill="#222222" fill-opacity="0.3"/>
<path d="M93.5916 68.4933L96.8484 64.6262H93.7259V63.5664H98.4718V64.4899L95.2373 68.357H98.5287V69.4169H93.5916V68.4933Z" fill="#222222" fill-opacity="0.3"/>
<path d="M99.5439 62.6877V61.1885H101.055V62.6877H99.5439ZM99.5439 69.417V63.5096H101.055V69.417H99.5439Z" fill="#222222" fill-opacity="0.3"/>
<path d="M105.936 64.8199C105.478 64.8199 105.067 64.9074 104.707 65.0843C104.347 65.2613 104.086 65.5156 103.93 65.8452V69.4193H102.418V63.5688H103.806V64.7751C104.015 64.3683 104.282 64.0489 104.605 63.817C104.929 63.5851 105.27 63.4569 105.63 63.4346H105.822C105.866 63.4346 105.905 63.4386 105.933 63.4468V64.8219L105.936 64.8199Z" fill="#222222" fill-opacity="0.3"/>
<path d="M106.77 61.1904H108.281V67.5454C108.281 67.818 108.326 67.999 108.415 68.0947C108.505 68.1903 108.629 68.235 108.787 68.235C108.908 68.235 109.032 68.2208 109.16 68.1903C109.288 68.1597 109.4 68.1231 109.497 68.0784L109.701 69.2277C109.497 69.3254 109.261 69.4006 108.991 69.4535C108.72 69.5064 108.476 69.5329 108.259 69.5329C107.785 69.5329 107.418 69.4067 107.16 69.1545C106.902 68.9023 106.772 68.5422 106.772 68.0743V61.1904H106.77Z" fill="#222222" fill-opacity="0.3"/>
<path d="M110.354 62.6877V61.1885H111.865V62.6877H110.354ZM110.354 69.417V63.5096H111.865V69.417H110.354Z" fill="#222222" fill-opacity="0.3"/>
<path d="M113.352 70.5684C113.487 70.5989 113.613 70.6253 113.731 70.6477C113.847 70.6701 113.946 70.6823 114.03 70.6823C114.172 70.6823 114.29 70.6477 114.384 70.5765C114.477 70.5053 114.569 70.3792 114.66 70.1981C114.75 70.0171 114.845 69.7628 114.943 69.4373L112.61 63.5706H114.176L115.765 67.9035L117.163 63.5706H118.605L116.125 70.6029C116.036 70.8633 115.897 71.1013 115.714 71.3129C115.529 71.5265 115.301 71.6933 115.027 71.8174C114.752 71.9415 114.447 72.0025 114.107 72.0025C113.987 72.0025 113.867 71.9923 113.747 71.974C113.627 71.9557 113.495 71.9232 113.352 71.8784V70.5704V70.5684Z" fill="#222222" fill-opacity="0.3"/>
<path d="M119.427 62.6877V61.1885H120.938V62.6877H119.427ZM119.427 69.417V63.5096H120.938V69.417H119.427Z" fill="#222222" fill-opacity="0.3"/>
</g>
<defs>
<clipPath id="clip0_135_891">
<rect width="133.646" height="72" fill="white" transform="translate(0.177094)"/>
</clipPath>
</defs>
</svg>
