<svg width="100" height="100" viewBox="0 0 100 100" fill="none" xmlns="http://www.w3.org/2000/svg">
<path d="M48.2589 21.3682L48.619 21.4882L49.3393 22.8087V23.0488L51.2601 22.5686H51.5002L51.2601 23.7691L51.02 24.7295L51.7403 24.9696L52.8207 25.6899L52.3405 26.05L51.14 26.7703L51.3801 28.0909L51.5002 28.8111L50.6598 28.6911L49.3393 28.3309L49.0992 29.0512L48.499 30.1317H48.2589L47.4186 28.571V28.3309L46.2181 28.6911L45.6178 29.2913H45.3777V29.5314H45.1376V29.7715L44.2973 30.4918L44.1773 30.7319H43.9372V30.972H43.6971V31.2121L43.2169 31.6923H42.9768L42.7367 32.1725L40.936 33.9732L40.0956 34.9336L38.655 36.6143L37.0944 38.535L35.5338 40.6959L33.8531 43.337L32.6526 45.4978L31.2121 48.7391L30.2517 51.7403L29.6514 54.5014L29.2913 57.6227V60.3838L29.5314 62.4246L30.1316 64.9456L30.8519 66.8664L32.1725 69.3874L33.493 71.1881L34.8135 72.6287L35.8939 73.7091L37.8147 75.1497L40.4558 76.5903L42.7367 77.4306L44.6574 77.9108L46.2181 78.1509H50.4198L52.5806 77.7907L54.9816 77.0704L56.9023 76.2301L58.8231 75.1497L60.3837 73.9492L61.8243 72.6287L62.7847 71.6683L63.9852 70.1077L65.1857 68.0668L65.7859 66.8664L66.3861 65.3057L66.9864 63.0248L67.3465 60.2637L67.4666 58.9432L67.7067 58.7031L68.3069 58.8231L68.547 59.0632L68.427 61.5843L68.0668 63.7451L67.2265 66.5062L65.9059 69.2673L64.7055 71.068L63.7451 72.2685L62.4246 73.7091L61.104 74.9096L59.3033 76.2301L57.3825 77.3105L56.062 77.9108L54.5014 78.511L52.1004 79.1113L50.4198 79.3514H46.098L43.457 78.8712L41.5362 78.2709L39.4954 77.4306L37.3345 76.2301L35.8939 75.1497L34.3333 73.8292L33.1328 72.6287L31.5722 70.5879L30.4918 68.7871L29.4113 66.5062L28.6911 64.1053L28.3309 62.4246L28.0908 60.1437V58.1029L28.3309 55.2217L28.9312 52.1005L29.7715 49.2193L30.7319 46.8183L31.6923 44.7775L32.8927 42.6167L34.4534 40.2157L35.7739 38.415L36.9744 36.8544L38.2949 35.2937L39.1352 34.3334L40.2157 33.1329L41.6562 31.5722L45.3777 27.8508L45.6178 26.7703L44.0572 25.8099L44.1773 25.4498L45.4978 24.7295H45.7379L45.2577 22.9288V22.5686L46.4582 22.8087L47.2985 22.9288L48.2589 21.3682Z" fill="#222222" fill-opacity="0.4"/>
<path d="M53.9014 55.1016H59.9038L61.4644 55.3417L62.4248 56.0619L62.7849 56.7822V58.3429L62.1847 59.5433L63.1451 60.5037L63.5052 61.4641V63.0247L63.025 63.9851L62.4248 64.5854L61.4644 65.0655L60.8642 65.1856H53.9014V55.1016Z" fill="#222222" fill-opacity="0.4"/>
<path d="M54.3818 26.7708H57.383L59.5438 27.1309L61.2245 27.6111L63.2653 28.4514L65.1861 29.6519L66.3866 30.6123L67.5871 31.6927L68.9076 33.2533L69.3878 34.0937L69.2677 34.814L68.9076 35.1741L67.8272 35.4142H64.5859L62.425 35.0541L59.904 34.2137L57.6231 33.0132L55.9424 31.8128L54.2617 30.2521L52.9412 28.5715L52.7011 28.0913L52.8212 27.371L53.4214 26.8908L54.3818 26.7708Z" fill="#222222" fill-opacity="0.4"/>
<path d="M64.2258 16.4463H67.4671L68.9077 16.6864L69.5079 17.1666L69.6279 17.8869L69.5079 18.247H69.2678L69.0277 18.7272L68.1874 19.8076L67.227 20.648L65.9065 21.7284L64.3458 22.6888L62.0649 23.7692L59.9041 24.3695L58.5835 24.6096L57.1429 24.7296H55.7024L53.6616 24.4895L53.0613 24.2494L52.7012 23.7692L52.8212 22.9289L54.1417 21.3683L55.2222 20.2878L57.0229 18.9673L59.1838 17.7668L62.0649 16.8064L64.2258 16.4463Z" fill="#222222" fill-opacity="0.4"/>
<path d="M50.4203 30.0117L51.1406 30.1318L52.4611 31.2122L53.9017 32.6528L55.3422 34.6936L56.3026 36.4943L57.0229 38.4151L57.5031 40.5759L57.6232 41.2962V44.8977L57.3831 46.3382L56.9029 46.8184L56.1826 46.9385L55.4623 46.4583L54.2618 45.3779L53.0613 44.1774L51.6208 42.1366L50.3002 39.3755L49.5799 36.6144L49.3398 34.2134L49.4599 31.8124L49.7 30.612L50.0601 30.1318L50.4203 30.0117Z" fill="#222222" fill-opacity="0.4"/>
<path d="M40.0961 4.44141L40.8164 4.56145L42.1369 5.64189L43.4575 6.96241V7.20251H43.6976L45.1381 9.24333L46.3386 11.7643L47.0589 14.1653L47.299 15.6059L47.4191 17.8868L47.179 20.4078L46.9389 21.008L46.4587 21.3682L45.6183 21.2481L44.2978 20.1677L42.9773 18.8472L41.5367 16.9264L40.4563 14.8856L39.736 12.9648L39.2558 10.924L39.1357 9.96362V6.48222L39.3758 5.04165L39.856 4.56145L40.0961 4.44141Z" fill="#222222" fill-opacity="0.4"/>
<path d="M46.0983 30.0117L46.8185 30.2518L47.1787 30.732L47.2987 31.5723V34.8136L46.9386 36.9745L46.0983 39.4955L45.1379 41.4163L44.0574 42.9769L42.7369 44.5375L41.2963 45.8581L40.3359 46.5783L39.4956 46.6984L38.7753 46.0982L38.6553 45.1378V42.0165L39.0154 39.8557L39.6157 37.8148L40.6961 35.5339L41.6565 34.0934L42.6169 32.8929L44.4176 31.0922L45.7381 30.1318L46.0983 30.0117Z" fill="#222222" fill-opacity="0.4"/>
<path d="M56.7827 4.68188L57.503 4.80193L57.9832 5.40217L58.1032 6.36256V9.36376L57.7431 11.5246L57.1429 13.5654L55.9424 16.0864L54.7419 17.7671L53.3013 19.4478L51.7407 20.7683L51.0204 21.2485L50.4202 21.3686L49.8199 21.1285L49.5798 20.6483L49.4598 19.8079V16.5666L49.8199 14.4058L50.4202 12.485L51.2605 10.5642L52.581 8.52342L54.1417 6.7227L55.3421 5.64227L56.5426 4.80193L56.7827 4.68188Z" fill="#222222" fill-opacity="0.4"/>
<path d="M38.4154 26.7708H42.2569L43.5774 27.0108L43.9376 27.371L44.0576 28.2113L43.0972 29.5319L41.4166 31.2125L39.7359 32.413L38.0552 33.3734L35.6543 34.3338L33.6135 34.814L32.8932 34.934H29.1717L27.7311 34.6939L27.2509 34.2137L27.1309 33.6135L27.491 32.8932L28.9316 31.3326L29.5318 30.7323H29.7719L29.892 30.3722L31.8127 29.0517L33.8535 27.9712L36.3746 27.1309L38.4154 26.7708Z" fill="#222222" fill-opacity="0.4"/>
<path d="M29.1718 15.9668H32.053L34.2138 16.3269L36.1346 16.9272L38.0554 17.7675L39.8561 18.8479L41.1766 19.9284L43.0974 21.8491L43.9377 23.0496L44.0578 23.6499L43.6976 24.2501L43.4575 24.4902L42.6172 24.6103H39.1358L37.095 24.2501L34.574 23.4098L32.6532 22.4494L31.2126 21.489L29.652 20.1685L28.8117 19.3281L27.3711 17.4074L27.4911 16.567L27.8513 16.2069L28.0914 16.0868L29.1718 15.9668Z" fill="#222222" fill-opacity="0.4"/>
<path d="M46.9387 54.8623H48.1392L49.5798 55.2224L50.6602 55.8227L51.7406 56.9031L52.4609 58.3437L52.701 59.5442V60.7447L52.3409 62.3053L51.6206 63.5058L50.6602 64.4661L49.5798 65.0664L48.8595 65.3065L48.0191 65.4265H46.8187L45.3781 65.0664L44.2977 64.4661L43.0972 63.2657L42.4969 61.9451L42.2568 60.8647V59.4241L42.617 57.9836L43.2172 56.9031L44.4177 55.7026L45.6182 55.1024L46.9387 54.8623ZM46.8187 56.0628L45.6182 56.4229L44.5377 57.2633L43.8175 58.4637L43.5774 59.3041V61.1048L44.0576 62.3053L44.7778 63.2657L45.6182 63.8659L46.8187 64.2261H48.1392L49.3397 63.8659L50.5401 62.7855L51.0203 62.0652L51.2604 61.4649L51.3805 60.7447V59.5442L51.1404 58.5838L50.6602 57.6234L50.18 57.0232L48.9795 56.3029L48.1392 56.0628H46.8187Z" fill="#222222" fill-opacity="0.4"/>
<path d="M33.2529 55.2217H34.4534V60.0236L35.5338 59.1833L36.8544 57.9828L38.1749 56.9024L39.4954 55.7019H39.7355V55.4618L40.0957 55.2217H41.6563L40.936 56.062L39.7355 57.1424L38.415 58.2229L37.9348 58.8231L41.0561 63.1448L42.2565 64.8255L42.3766 65.1857H40.936L39.7355 63.625L38.535 61.9444L36.9744 59.7835L36.4942 60.0236L34.8136 61.4642L34.5735 61.5842L34.4534 65.1857H33.2529V55.2217Z" fill="#222222" fill-opacity="0.4"/>
<path d="M55.2216 60.2637H60.8639L61.5842 60.6238L62.0643 61.104L62.1844 61.4642V62.7847L61.8243 63.505L61.104 63.9852H55.1016V60.3837L55.2216 60.2637Z" fill="#FEFEFE"/>
<path d="M55.2216 56.3027H60.5037L61.224 56.6629L61.5842 57.3832L61.4641 58.4636L60.7438 59.0638H55.1016V56.4228L55.2216 56.3027Z" fill="#FEFEFE"/>
<path d="M42.9775 86.1943H47.0592V87.0347H44.178L43.9379 86.9146V88.9554H46.9391V89.7958H43.9379V91.8366H47.0592V92.6769H42.9775V86.1943Z" fill="#222222" fill-opacity="0.4"/>
<path d="M47.7791 87.7551H48.6194L48.9796 88.4754L49.94 91.4766L50.4202 90.2761L51.2605 87.7551H52.2209L52.1008 88.3554L50.6603 92.437L50.5402 92.6771H49.4598L48.8595 91.2365L47.7791 88.2353V87.7551Z" fill="#222222" fill-opacity="0.4"/>
<path d="M52.9412 87.7551H53.7815L53.9015 87.8752V92.6771H52.9412V87.7551Z" fill="#222222" fill-opacity="0.4"/>
<path d="M53.0614 85.9541H53.6616L54.0218 86.5543L53.6616 87.0345H53.0614L52.8213 86.6744L52.9413 86.0741L53.0614 85.9541Z" fill="#222222" fill-opacity="0.4"/>
</svg>
