<svg width="565" height="142" viewBox="0 0 565 142" fill="none" xmlns="http://www.w3.org/2000/svg">
<path d="M300.817 141.575L1.57666 105.842L91.0334 83.2222L209.133 97.3245L293.665 75.9494L175.566 61.8471L265.433 39.123L564.674 74.8556L474.807 97.5796L374.359 85.5851L289.827 106.96L390.274 118.955L300.817 141.575Z" fill="#FF6E06"/>
<path d="M265.434 21.8116L175.566 44.5356V61.8472L265.434 39.1232V21.8116Z" fill="url(#paint0_linear_1124_6206)"/>
<path d="M564.673 57.5441L265.432 21.8116V39.1232L564.673 74.8557V57.5441Z" fill="url(#paint1_linear_1124_6206)"/>
<path d="M175.566 44.5355L293.666 58.6378V75.9493L175.566 61.847V44.5355Z" fill="url(#paint2_linear_1124_6206)"/>
<path d="M474.806 80.2681L564.673 57.5441V74.8556L474.806 97.5797V80.2681Z" fill="url(#paint3_linear_1124_6206)"/>
<path d="M293.665 58.6382L209.133 80.0133V97.3249L293.665 75.9497V58.6382Z" fill="url(#paint4_linear_1124_6206)"/>
<path d="M209.132 80.0132L91.0327 65.9109V83.2224L209.132 97.3247V80.0132Z" fill="url(#paint5_linear_1124_6206)"/>
<path d="M374.358 68.2737L474.805 80.2681V97.5797L374.358 85.5852V68.2737Z" fill="url(#paint6_linear_1124_6206)"/>
<path d="M91.0334 65.9109L1.57666 88.5311V105.843L91.0334 83.2224V65.9109Z" fill="url(#paint7_linear_1124_6206)"/>
<path d="M289.826 89.6488L374.358 68.2737V85.5852L289.826 106.96V89.6488Z" fill="url(#paint8_linear_1124_6206)"/>
<path d="M390.273 101.643L289.826 89.6486V106.96L390.273 118.955V101.643Z" fill="url(#paint9_linear_1124_6206)"/>
<path d="M1.57666 88.5315L300.817 124.264V141.576L1.57666 105.843V88.5315Z" fill="url(#paint10_linear_1124_6206)"/>
<path d="M300.817 124.264L390.274 101.643V118.955L300.817 141.575V124.264Z" fill="url(#paint11_linear_1124_6206)"/>
<path d="M300.219 124.193L0.978179 88.4601L90.4349 65.8398L208.534 79.9421L293.067 58.567L174.967 44.4647L264.835 21.7406L564.075 57.4732L474.208 80.1972L373.761 68.2027L289.228 89.5778L389.676 101.572L300.219 124.193Z" fill="#FF6E06"/>
<defs>
<linearGradient id="paint0_linear_1124_6206" x1="265.434" y1="41.8294" x2="175.566" y2="41.8294" gradientUnits="userSpaceOnUse">
<stop stop-color="#BC6400"/>
<stop offset="1" stop-color="#BC6400"/>
</linearGradient>
<linearGradient id="paint1_linear_1124_6206" x1="564.673" y1="48.3336" x2="265.432" y2="48.3336" gradientUnits="userSpaceOnUse">
<stop stop-color="#6D2700"/>
<stop offset="1" stop-color="#6D2700"/>
</linearGradient>
<linearGradient id="paint2_linear_1124_6206" x1="293.666" y1="60.2424" x2="175.566" y2="60.2424" gradientUnits="userSpaceOnUse">
<stop stop-color="#6D2700"/>
<stop offset="1" stop-color="#6D2700"/>
</linearGradient>
<linearGradient id="paint3_linear_1124_6206" x1="564.673" y1="77.5619" x2="474.806" y2="77.5619" gradientUnits="userSpaceOnUse">
<stop stop-color="#BC6400"/>
<stop offset="1" stop-color="#BC6400"/>
</linearGradient>
<linearGradient id="paint4_linear_1124_6206" x1="293.665" y1="77.9815" x2="209.133" y2="77.9815" gradientUnits="userSpaceOnUse">
<stop stop-color="#BC6400"/>
<stop offset="1" stop-color="#BC6400"/>
</linearGradient>
<linearGradient id="paint5_linear_1124_6206" x1="209.132" y1="81.6178" x2="91.0327" y2="81.6178" gradientUnits="userSpaceOnUse">
<stop stop-color="#6D2700"/>
<stop offset="1" stop-color="#6D2700"/>
</linearGradient>
<linearGradient id="paint6_linear_1124_6206" x1="474.805" y1="82.9267" x2="374.358" y2="82.9267" gradientUnits="userSpaceOnUse">
<stop stop-color="#6D2700"/>
<stop offset="1" stop-color="#6D2700"/>
</linearGradient>
<linearGradient id="paint7_linear_1124_6206" x1="91.0334" y1="85.8768" x2="1.57666" y2="85.8768" gradientUnits="userSpaceOnUse">
<stop stop-color="#BC6400"/>
<stop offset="1" stop-color="#BC6400"/>
</linearGradient>
<linearGradient id="paint8_linear_1124_6206" x1="374.358" y1="87.617" x2="289.826" y2="87.617" gradientUnits="userSpaceOnUse">
<stop stop-color="#BC6400"/>
<stop offset="1" stop-color="#BC6400"/>
</linearGradient>
<linearGradient id="paint9_linear_1124_6206" x1="390.273" y1="104.302" x2="289.826" y2="104.302" gradientUnits="userSpaceOnUse">
<stop stop-color="#6D2700"/>
<stop offset="1" stop-color="#6D2700"/>
</linearGradient>
<linearGradient id="paint10_linear_1124_6206" x1="300.817" y1="115.054" x2="1.57666" y2="115.054" gradientUnits="userSpaceOnUse">
<stop stop-color="#6D2700"/>
<stop offset="1" stop-color="#6D2700"/>
</linearGradient>
<linearGradient id="paint11_linear_1124_6206" x1="390.274" y1="121.609" x2="300.817" y2="121.609" gradientUnits="userSpaceOnUse">
<stop stop-color="#BC6400"/>
<stop offset="1" stop-color="#BC6400"/>
</linearGradient>
</defs>
</svg>
