<svg width="526" height="135" viewBox="0 0 526 135" fill="none" xmlns="http://www.w3.org/2000/svg">
<path d="M525.646 85.5649L368.823 125.219L358.818 124.025L387.097 116.874L38.4785 75.2451L10.199 82.3959L0.193359 81.2011L157.016 41.5465L167.022 42.7413L138.742 49.8921L487.361 91.5209L515.64 84.3701L525.646 85.5649Z" fill="#FF6E06"/>
<path d="M167.023 24.7326L157.018 23.5378V41.5465L167.023 42.7413V24.7326Z" fill="url(#paint0_linear_1124_6205)"/>
<path d="M138.743 31.8833L167.022 24.7325V42.7412L138.743 49.892V31.8833Z" fill="url(#paint1_linear_1124_6205)"/>
<path d="M157.016 23.538L0.193359 63.1925V81.2012L157.016 41.5466V23.538Z" fill="url(#paint2_linear_1124_6205)"/>
<path d="M487.361 73.5121L138.743 31.8833V49.892L487.361 91.5208V73.5121Z" fill="url(#paint3_linear_1124_6205)"/>
<path d="M10.1992 64.3874L38.4787 57.2366V75.2453L10.1992 82.3961V64.3874Z" fill="url(#paint4_linear_1124_6205)"/>
<path d="M0.193359 63.1927L10.199 64.3875V82.3962L0.193359 81.2014V63.1927Z" fill="url(#paint5_linear_1124_6205)"/>
<path d="M525.647 67.5562L515.641 66.3614V84.3701L525.647 85.5649V67.5562Z" fill="url(#paint6_linear_1124_6205)"/>
<path d="M515.64 66.3614L487.361 73.5122V91.5209L515.64 84.3701V66.3614Z" fill="url(#paint7_linear_1124_6205)"/>
<path d="M38.4795 57.2366L387.098 98.8654V116.874L38.4795 75.2453V57.2366Z" fill="url(#paint8_linear_1124_6205)"/>
<path d="M368.825 107.211L525.648 67.5561V85.5647L368.825 125.219V107.211Z" fill="url(#paint9_linear_1124_6205)"/>
<path d="M387.097 98.865L358.817 106.016V124.024L387.097 116.874V98.865Z" fill="url(#paint10_linear_1124_6205)"/>
<path d="M358.817 106.016L368.823 107.211V125.219L358.817 124.024V106.016Z" fill="url(#paint11_linear_1124_6205)"/>
<path d="M525.862 67.5823L369.039 107.237L359.033 106.042L387.313 98.8913L38.6943 57.2625L10.4149 64.4133L0.409205 63.2186L157.232 23.564L167.237 24.7588L138.958 31.9096L487.576 73.5384L515.856 66.3876L525.862 67.5823Z" fill="#FF6E06"/>
<defs>
<linearGradient id="paint0_linear_1124_6205" x1="167.023" y1="33.1396" x2="157.018" y2="33.1396" gradientUnits="userSpaceOnUse">
<stop stop-color="#6D2E00"/>
<stop offset="1" stop-color="#6D2E00"/>
</linearGradient>
<linearGradient id="paint1_linear_1124_6205" x1="167.022" y1="37.3123" x2="138.743" y2="37.3123" gradientUnits="userSpaceOnUse">
<stop stop-color="#BC4E00"/>
<stop offset="1" stop-color="#BC4E00"/>
</linearGradient>
<linearGradient id="paint2_linear_1124_6205" x1="157.016" y1="52.3696" x2="0.193359" y2="52.3696" gradientUnits="userSpaceOnUse">
<stop stop-color="#BC4E00"/>
<stop offset="1" stop-color="#BC4E00"/>
</linearGradient>
<linearGradient id="paint3_linear_1124_6205" x1="487.361" y1="61.702" x2="138.743" y2="61.702" gradientUnits="userSpaceOnUse">
<stop stop-color="#6D2E00"/>
<stop offset="1" stop-color="#6D2E00"/>
</linearGradient>
<linearGradient id="paint4_linear_1124_6205" x1="38.4787" y1="69.8163" x2="10.1992" y2="69.8163" gradientUnits="userSpaceOnUse">
<stop stop-color="#BC4E00"/>
<stop offset="1" stop-color="#BC4E00"/>
</linearGradient>
<linearGradient id="paint5_linear_1124_6205" x1="10.199" y1="72.7944" x2="0.193359" y2="72.7944" gradientUnits="userSpaceOnUse">
<stop stop-color="#6D2E00"/>
<stop offset="1" stop-color="#6D2E00"/>
</linearGradient>
<linearGradient id="paint6_linear_1124_6205" x1="525.647" y1="75.9631" x2="515.641" y2="75.9631" gradientUnits="userSpaceOnUse">
<stop stop-color="#6D2E00"/>
<stop offset="1" stop-color="#6D2E00"/>
</linearGradient>
<linearGradient id="paint7_linear_1124_6205" x1="515.64" y1="78.9412" x2="487.361" y2="78.9412" gradientUnits="userSpaceOnUse">
<stop stop-color="#BC4E00"/>
<stop offset="1" stop-color="#BC4E00"/>
</linearGradient>
<linearGradient id="paint8_linear_1124_6205" x1="387.098" y1="87.0553" x2="38.4795" y2="87.0553" gradientUnits="userSpaceOnUse">
<stop stop-color="#6D2E00"/>
<stop offset="1" stop-color="#6D2E00"/>
</linearGradient>
<linearGradient id="paint9_linear_1124_6205" x1="525.648" y1="96.3877" x2="368.825" y2="96.3877" gradientUnits="userSpaceOnUse">
<stop stop-color="#BC4E00"/>
<stop offset="1" stop-color="#BC4E00"/>
</linearGradient>
<linearGradient id="paint10_linear_1124_6205" x1="387.097" y1="111.445" x2="358.817" y2="111.445" gradientUnits="userSpaceOnUse">
<stop stop-color="#BC4E00"/>
<stop offset="1" stop-color="#BC4E00"/>
</linearGradient>
<linearGradient id="paint11_linear_1124_6205" x1="368.823" y1="115.617" x2="358.817" y2="115.617" gradientUnits="userSpaceOnUse">
<stop stop-color="#6D2E00"/>
<stop offset="1" stop-color="#6D2E00"/>
</linearGradient>
</defs>
</svg>
