<svg xmlns="http://www.w3.org/2000/svg" width="84" height="56" viewBox="0 0 84 56" fill="none">
  <g clip-path="url(#clip0_316_830)">
    <path d="M13.6498 43.4883H14.7275C16.0415 43.4883 16.5369 44.1674 16.5583 45.1779C17.7345 44.1674 19.0222 43.3013 20.7119 43.3013C22.0029 43.3013 22.9429 43.9788 23.248 45.2009C24.6112 44.0756 26.0663 43.3013 27.6838 43.3013C29.6573 43.3013 30.758 44.8499 30.1478 47.4549L28.1989 55.8097H25.9252C25.128 55.8097 24.8704 55.4816 25.1493 54.2841L26.6766 47.4549C26.8882 46.4673 26.629 46.0228 25.9252 46.0228C25.2674 46.0228 24.4456 46.3509 23.248 47.0776L23.1791 47.4549L21.2303 55.8097H17.8247L19.7047 47.4549C19.9163 46.4673 19.6587 46.0228 18.955 46.0228C18.2955 46.0228 17.4523 46.3509 16.2794 47.1022L14.2813 55.8097H10.8331L13.6498 43.4883ZM31.3945 50.9277C31.3945 46.9381 33.8584 43.3013 37.9678 43.3013C40.9468 43.3013 42.4265 45.0598 42.4036 47.737C42.4036 48.5573 42.2625 49.4726 42.0049 50.411H34.7295V50.8818C34.7295 52.8536 35.5514 53.5803 37.0983 53.5803C38.2499 53.5803 39.2342 53.2752 40.1266 52.7142H41.2306L40.6909 55.0846C39.7969 55.5751 38.5075 55.9754 36.726 55.9754C33.322 55.9754 31.3961 54.2398 31.3961 50.9294M35.01 48.3473H39.3523C39.4229 48.0192 39.4458 47.7141 39.4458 47.4319C39.4458 46.1179 38.788 45.4831 37.7578 45.4831C36.3946 45.4831 35.4562 46.6101 35.01 48.3473ZM44.1408 51.9858L45.5729 45.7898H44.2359L44.7297 43.4899H46.0896L46.8442 40.2041H50.2695L49.5165 43.4899H51.7246L51.2325 45.7898H48.9785L47.548 52.058C47.3118 53.0898 47.6399 53.6525 48.9309 53.6525H49.5165L49.0736 55.6949C48.5798 55.8851 48.0631 56 47.1707 56C44.5903 56 43.5798 54.4744 44.1424 51.9858M53.7916 43.4883H54.8693C56.349 43.4883 56.7723 44.3101 56.6984 45.5306C57.6171 44.2609 58.8851 43.3702 60.268 43.3702C60.5256 43.3702 60.7618 43.4177 60.9718 43.4883L60.3386 46.3755H59.9153C58.2979 46.3755 57.0774 46.9398 56.3031 47.596L54.4231 55.8113H50.9749L53.7916 43.4899V43.4883ZM60.8094 50.7883C60.8094 46.2327 63.9312 43.3013 67.5221 43.3013C71.1131 43.3013 72.8995 45.4125 72.8995 48.5802C72.8995 53.1358 69.9861 55.9524 66.2098 55.9524C62.7812 55.9524 60.811 53.956 60.811 50.7883M69.5415 48.5113C69.5415 46.5395 68.6967 45.7423 67.4286 45.7423C65.4141 45.7423 64.169 48.2784 64.169 50.8605C64.169 52.8306 65.0139 53.5803 66.3279 53.5803C68.4194 53.5803 69.5431 51.1393 69.5431 48.5113" fill="#231F20"/>
    <path d="M54.0735 0.00195312C52.8497 0.00195312 51.7703 0.782807 51.1683 1.95409L41.8636 19.8661L46.7473 29.2643C47.2427 30.0468 47.9546 30.6111 48.7732 30.8161C49.0012 30.8768 49.2391 30.9113 49.4786 30.9113H49.4425H49.5131C50.7385 30.9113 51.8097 30.1288 52.4199 28.9592L66.4835 1.84582C66.9773 0.958335 67.7434 0.316919 68.6259 0.0888969C68.8523 0.0364026 69.0918 0.00359357 69.3346 0.00359357H54.0735V0.00195312Z" fill="#EB2027"/>
    <path d="M34.9575 30.8161C35.7761 30.611 36.4897 30.0484 36.9818 29.2659L41.8638 19.8694L32.5641 1.95405C31.9768 0.817218 30.9433 0.0494876 29.7605 0.00683594C29.5457 0.0133977 29.3373 0.0412854 29.1323 0.0937797C28.3137 0.308678 27.6017 0.869712 27.1145 1.65877C27.0407 1.7736 23.5859 8.4207 22.121 11.2423L31.3091 28.9575C31.9177 30.1271 32.9906 30.9112 34.216 30.9112H34.2488C34.49 30.9112 34.7278 30.8768 34.9575 30.8145" fill="#2686BF"/>
    <path d="M82.3403 21.2028C82.3403 21.2028 72.4271 2.16703 72.3205 1.95214C71.7102 0.782495 70.6308 0 69.4054 0H69.3349C69.0921 0 68.8509 0.0344495 68.6262 0.0885843C67.7436 0.316607 66.9792 0.958023 66.4838 1.84387L61.7478 10.9795C65.552 18.2959 70.2109 27.2544 70.2207 27.2741C71.9547 30.596 76.0525 31.8821 79.3679 30.1498C82.6241 28.4536 83.9185 24.4854 82.3403 21.2028Z" fill="#00AA5A"/>
    <path d="M28.1523 0H14.594C13.3703 0 12.2925 0.782494 11.6806 1.95213C11.5723 2.16703 1.66237 21.2028 1.66237 21.2028C0.082619 24.4853 1.37857 28.4552 4.63159 30.1498C7.95021 31.8838 12.0513 30.596 13.7804 27.2741L21.4708 12.4986L21.4757 12.4887C21.4757 12.4887 27.0204 1.80613 27.1139 1.65849C27.6028 0.869438 28.3164 0.306764 29.1317 0.095146C29.3646 0.032809 29.6041 0 29.8535 0H28.1507L28.1523 0Z" fill="#DED74A"/>
    <path d="M49.4805 30.9107C49.241 30.9107 49.0015 30.8762 48.7751 30.8156C47.9565 30.6105 47.2413 30.0478 46.7491 29.2637C46.7491 29.2637 41.8639 19.8655 41.8639 19.8672L36.9819 29.2637C36.4914 30.0462 35.7762 30.6105 34.9576 30.8156C34.7296 30.8762 34.49 30.9107 34.2489 30.9107H49.4821H49.4805Z" fill="#8D267C"/>
  </g>
  <defs>
    <clipPath id="clip0_316_830">
      <rect width="82.0225" height="56" fill="white" transform="translate(0.98877)"/>
    </clipPath>
  </defs>
</svg>