<svg width="136" height="137" viewBox="0 0 136 137" fill="none" xmlns="http://www.w3.org/2000/svg">
<path d="M79 68.3105C79 86.9416 74.5557 103.76 67.4223 115.887C60.2754 128.037 50.5466 135.311 40 135.311C29.4534 135.311 19.7246 128.037 12.5777 115.887C5.44428 103.76 1 86.9416 1 68.3105C1 49.6795 5.44428 32.8611 12.5777 20.7343C19.7246 8.58444 29.4534 1.31055 40 1.31055C50.5466 1.31055 60.2754 8.58444 67.4223 20.7343C74.5557 32.8611 79 49.6795 79 68.3105Z" stroke="#FF6E06" stroke-width="2"/>
<path d="M79 68.3105C79 86.9416 74.5557 103.76 67.4223 115.887C60.2754 128.037 50.5466 135.311 40 135.311C29.4534 135.311 19.7246 128.037 12.5777 115.887C5.44428 103.76 1 86.9416 1 68.3105C1 49.6795 5.44428 32.8611 12.5777 20.7343C19.7246 8.58444 29.4534 1.31055 40 1.31055C50.5466 1.31055 60.2754 8.58444 67.4223 20.7343C74.5557 32.8611 79 49.6795 79 68.3105Z" stroke="#FF6E06" stroke-width="2"/>
<path d="M135 68.3105C135 86.9416 130.556 103.76 123.422 115.887C116.275 128.037 106.547 135.311 96 135.311C85.4534 135.311 75.7246 128.037 68.5777 115.887C61.4443 103.76 57 86.9416 57 68.3105C57 49.6795 61.4443 32.8611 68.5777 20.7343C75.7246 8.58444 85.4534 1.31055 96 1.31055C106.547 1.31055 116.275 8.58444 123.422 20.7343C130.556 32.8611 135 49.6795 135 68.3105Z" stroke="#FF6E06" stroke-width="2"/>
<path d="M135 68.3105C135 86.9416 130.556 103.76 123.422 115.887C116.275 128.037 106.547 135.311 96 135.311C85.4534 135.311 75.7246 128.037 68.5777 115.887C61.4443 103.76 57 86.9416 57 68.3105C57 49.6795 61.4443 32.8611 68.5777 20.7343C75.7246 8.58444 85.4534 1.31055 96 1.31055C106.547 1.31055 116.275 8.58444 123.422 20.7343C130.556 32.8611 135 49.6795 135 68.3105Z" stroke="#FF6E06" stroke-width="2"/>
</svg>
