<svg width="90" height="60" viewBox="0 0 90 60" fill="none" xmlns="http://www.w3.org/2000/svg">
<g id="shi-flow-white 2" clip-path="url(#clip0_665_2186)">
<path id="Vector" d="M51.4186 30.5503C54.057 33.3464 58.2336 37.0961 64.164 40.1219C68.1652 42.1633 71.8791 43.3207 74.8496 44.0013C71.8499 44.2109 68.5548 44.668 65.053 45.5171C52.4529 48.5724 43.4245 55.1871 38.0617 59.9995C42.523 56.0661 52.1748 46.3822 51.7529 33.8129C51.7179 32.7672 51.6121 31.6782 51.4181 30.5498L51.4186 30.5503Z" fill="#FF6E06"/>
<path id="Vector_2" d="M76.6436 41.4688C74.0052 38.6727 69.8286 34.9229 63.8983 31.8971C59.897 29.8558 56.1831 28.6984 53.2126 28.0178C56.2123 27.8082 59.5074 27.351 63.0092 26.502C75.6089 23.4467 84.6368 16.832 90 12.0195C85.5387 15.953 75.8869 25.6368 76.3089 38.2061C76.3439 39.2518 76.4497 40.3409 76.6436 41.4692V41.4688Z" fill="#FF6E06"/>
<path id="Vector_3" d="M42.1525 0.510742C42.0591 4.37132 42.3854 10.0029 44.4593 16.3749C45.8585 20.6739 47.6738 24.1425 49.2979 26.7443C47.03 24.7516 44.3796 22.7233 41.3086 20.8249C30.2582 13.9931 19.2404 12.227 12.0765 11.8025C17.987 12.2051 31.5962 12.2458 40.1039 3.05705C40.8114 2.29244 41.4999 1.4474 42.153 0.510742H42.1525Z" fill="#FF6E06"/>
<path id="Vector_4" d="M12.7151 16.5356C16.6987 19.792 22.8881 24.0472 31.2851 27.035C36.9502 29.0509 42.0823 29.9424 46.146 30.3294C42.1965 31.1298 37.8964 32.3109 33.3886 34.0483C17.1689 40.3006 6.30345 50.6601 -0.000183105 57.988C5.25542 51.9851 16.425 37.4392 13.7175 20.8122C13.4922 19.4291 13.1658 18.0005 12.7156 16.5352L12.7151 16.5356Z" fill="#FF6E06"/>
<path id="Vector_5" d="M52.3405 26.2335C52.4339 22.3729 52.1076 16.7414 50.0337 10.3694C48.6346 6.07039 46.8192 2.60172 45.1952 0C47.463 1.99263 50.1134 4.02101 53.1844 5.91935C64.2349 12.7512 75.2526 14.5173 82.4165 14.9418C76.5061 14.5392 62.8968 14.4985 54.3892 23.6872C53.6816 24.4518 52.9931 25.2969 52.34 26.2335H52.3405Z" fill="#FF6E06"/>
</g>
<defs>
<clipPath id="clip0_665_2186">
<rect width="90" height="60" fill="white" transform="matrix(-1 0 0 1 90 0)"/>
</clipPath>
</defs>
</svg>
