<svg width="200" height="49" viewBox="0 0 200 49" fill="none" xmlns="http://www.w3.org/2000/svg">
<g id="shi-logo-main 1" clip-path="url(#clip0_900_3692)">
<path id="Vector" d="M38.8747 0C34.4969 4.59586 27.5679 10.7609 17.7295 15.7333C11.0906 19.0897 4.92915 20.9921 0 22.1109C4.97599 22.455 10.4438 23.2081 16.254 24.6025C37.1596 29.6254 52.138 40.498 61.0361 48.4087C53.6352 41.9428 37.6208 26.024 38.3216 5.36334C38.3793 3.64462 38.5558 1.85384 38.8765 0L38.8747 0Z" fill="#FF6E06"/>
<g id="Group">
<path id="Vector_2" d="M59.7167 21.425L56.8071 21.0701C54.5839 20.8106 52.8742 20.1602 51.6798 19.1189C50.4853 18.0776 49.8872 16.6598 49.8872 14.8618C49.8872 12.8044 50.6258 11.1721 52.1049 9.96505C53.5823 8.75798 55.6108 8.15625 58.1889 8.15625C60.767 8.15625 62.6425 8.78861 64.1666 10.0551C65.6925 11.3198 66.5735 13.053 66.8095 15.2527H64.1125C63.8513 13.6691 63.2424 12.4855 62.2857 11.7054C61.3273 10.9253 59.9491 10.5343 58.1529 10.5343C56.4504 10.5343 55.083 10.9199 54.0543 11.6874C53.0256 12.4566 52.5103 13.48 52.5103 14.7573C52.5103 16.7679 54.0597 17.9749 57.1584 18.3767L59.9617 18.7316C64.8098 19.3225 67.2347 21.4988 67.2347 25.2606C67.2347 26.5847 66.8924 27.7377 66.206 28.7196C65.5196 29.7015 64.5611 30.4635 63.3325 31.0076C62.102 31.5517 60.6589 31.8237 59.0032 31.8237C56.2828 31.8237 54.1119 31.1734 52.4923 29.8726C50.8727 28.5719 49.943 26.846 49.707 24.6931H52.4743C52.7337 26.3253 53.4021 27.5252 54.4794 28.2944C55.555 29.0637 57.0755 29.4474 59.0393 29.4474C60.7184 29.4474 62.0659 29.0745 63.0838 28.3305C64.0999 27.5864 64.6098 26.5739 64.6098 25.2966C64.6098 23.0968 62.9776 21.8087 59.7131 21.4286L59.7167 21.425Z" fill="black"/>
<path id="Vector_3" d="M70.6426 8.47461H73.2675V18.3744H86.2173V8.47461H88.808V31.5368H86.2173V20.8569H73.2675V31.5368H70.6426V8.47461Z" fill="black"/>
<path id="Vector_4" d="M92.5703 8.47461H95.161V31.5368H92.5703V8.47461Z" fill="black"/>
<path id="Vector_5" d="M115.668 21.425L112.758 21.0701C110.535 20.8106 108.825 20.1602 107.631 19.1189C106.436 18.0776 105.838 16.6598 105.838 14.8618C105.838 12.8044 106.577 11.1721 108.056 9.96505C109.533 8.75798 111.562 8.15625 114.14 8.15625C116.718 8.15625 118.594 8.78861 120.118 10.0551C121.644 11.3198 122.525 13.053 122.761 15.2527H120.064C119.802 13.6691 119.194 12.4855 118.237 11.7054C117.278 10.9253 115.9 10.5343 114.104 10.5343C112.402 10.5343 111.034 10.9199 110.005 11.6874C108.977 12.4566 108.461 13.48 108.461 14.7573C108.461 16.7679 110.011 17.9749 113.11 18.3767L115.913 18.7316C120.761 19.3225 123.186 21.4988 123.186 25.2606C123.186 26.5847 122.844 27.7377 122.157 28.7196C121.471 29.7015 120.512 30.4635 119.284 31.0076C118.053 31.5517 116.61 31.8237 114.954 31.8237C112.234 31.8237 110.063 31.1734 108.443 29.8726C106.824 28.5719 105.894 26.846 105.658 24.6931H108.425C108.685 26.3253 109.353 27.5252 110.431 28.2944C111.506 29.0637 113.027 29.4474 114.99 29.4474C116.67 29.4474 118.017 29.0745 119.035 28.3305C120.051 27.5864 120.561 26.5739 120.561 25.2966C120.561 23.0968 118.929 21.8087 115.664 21.4286L115.668 21.425Z" fill="black"/>
<path id="Vector_6" d="M134.542 29.1953V31.5374H132.945C132.189 31.5374 131.49 31.3897 130.852 31.0942C130.214 30.7987 129.693 30.3195 129.29 29.6565C128.888 28.9954 128.686 28.1072 128.686 26.9956V16.1032H125.422V13.7971H128.686V9.18506H131.277V13.7971H134.542V16.1032H131.277V26.6767C131.277 27.6694 131.455 28.3396 131.809 28.6819C132.163 29.026 132.612 29.1971 133.156 29.1971H134.54L134.542 29.1953Z" fill="black"/>
<path id="Vector_7" d="M140.183 24.3344C140.183 26.1324 140.602 27.4385 141.442 28.2546C142.281 29.0708 143.398 29.4779 144.795 29.4779C146.191 29.4779 147.279 29.0167 148.202 28.0943C149.124 27.1719 149.585 25.99 149.585 24.547V13.7969H152.21V31.5371H149.585V28.6996C148.947 29.741 148.119 30.5445 147.101 31.112C146.083 31.6795 145.054 31.9641 144.015 31.9641C142.146 31.9641 140.608 31.3498 139.403 30.1193C138.195 28.8906 137.594 27.1395 137.594 24.8677V13.7987H140.184V24.3362L140.183 24.3344Z" fill="black"/>
<path id="Vector_8" d="M172.114 6.70215V31.5371H169.524V28.1303C168.886 29.3139 168.044 30.2363 167.005 30.8975C165.964 31.5587 164.769 31.8902 163.422 31.8902C161.86 31.8902 160.494 31.4992 159.323 30.7192C158.152 29.9391 157.242 28.8509 156.592 27.4547C155.941 26.0584 155.615 24.4388 155.615 22.594C155.615 20.7492 155.94 19.1349 156.592 17.7513C157.242 16.3677 158.154 15.2921 159.323 14.5229C160.494 13.7554 161.86 13.3698 163.422 13.3698C164.769 13.3698 165.964 13.7013 167.005 14.3625C168.046 15.0255 168.886 15.9479 169.524 17.1298V6.70215H172.114ZM158.312 22.5976C158.312 24.7739 158.802 26.4602 159.784 27.6528C160.766 28.8473 162.144 29.4454 163.917 29.4454C165.69 29.4454 167.068 28.8491 168.05 27.6528C169.032 26.4584 169.522 24.7739 169.522 22.5976C169.522 20.4213 169.03 18.7782 168.05 17.5946C167.068 16.4127 165.69 15.82 163.917 15.82C162.144 15.82 160.764 16.4109 159.784 17.5946C158.802 18.7782 158.312 20.4447 158.312 22.5976Z" fill="black"/>
<path id="Vector_9" d="M175.627 8.36865H178.713V11.3143H175.627V8.36865ZM175.876 13.7968H178.466V31.5371H175.876V13.7968Z" fill="black"/>
<path id="Vector_10" d="M181.871 22.5957C181.871 20.7509 182.221 19.1367 182.918 17.7531C183.615 16.3694 184.586 15.2939 185.827 14.5246C187.069 13.7571 188.53 13.3716 190.209 13.3716C191.888 13.3716 193.313 13.7571 194.554 14.5246C195.796 15.2939 196.759 16.3694 197.446 17.7531C198.132 19.1367 198.475 20.7509 198.475 22.5957C198.475 24.4406 198.132 26.062 197.446 27.4564C196.759 28.8527 195.796 29.9408 194.554 30.7209C193.313 31.501 191.863 31.8919 190.209 31.8919C188.555 31.8919 187.069 31.501 185.827 30.7209C184.586 29.9408 183.615 28.8527 182.918 27.4564C182.221 26.0602 181.871 24.4406 181.871 22.5957ZM195.779 22.5957C195.779 20.4428 195.288 18.7764 194.307 17.5927C193.326 16.4109 191.96 15.8181 190.209 15.8181C188.458 15.8181 187.022 16.4091 186.04 17.5927C185.058 18.7764 184.568 20.4428 184.568 22.5957C184.568 24.7486 185.058 26.4583 186.04 27.651C187.022 28.8454 188.411 29.4436 190.209 29.4436C192.007 29.4436 193.326 28.8472 194.307 27.651C195.289 26.4565 195.779 24.772 195.779 22.5957Z" fill="black"/>
</g>
</g>
<defs>
<clipPath id="clip0_900_3692">
<rect width="200" height="48.4087" fill="white"/>
</clipPath>
</defs>
</svg>
