<svg width="178" height="52" viewBox="0 0 178 52" fill="none" xmlns="http://www.w3.org/2000/svg">
<g style="mix-blend-mode:luminosity">
<path d="M45.7507 31.7975C45.3791 31.646 44.966 31.6305 44.5842 31.7538C44.2023 31.8771 43.8763 32.1313 43.6636 32.4715L39.9532 30.9714V30.9134C39.9563 30.7745 39.9271 30.6368 39.868 30.511C39.8089 30.3853 39.7215 30.275 39.6126 30.1887C40.5888 27.2812 40.5092 24.1226 39.3879 21.2678L43.6346 19.4779C43.8488 19.8251 44.1768 20.0871 44.5628 20.2193C44.9487 20.3515 45.3686 20.3456 45.7507 20.2026C46.0469 20.0722 46.3002 19.8607 46.4815 19.5926C46.6628 19.3245 46.7646 19.0107 46.7752 18.6872C46.7859 18.3637 46.705 18.0438 46.5417 17.7644C46.3785 17.4849 46.1396 17.2573 45.8527 17.1077C45.5657 16.9581 45.2423 16.8926 44.9197 16.9188C44.5971 16.9449 44.2885 17.0617 44.0294 17.2557C43.7703 17.4496 43.5713 17.7128 43.4553 18.015C43.3393 18.3171 43.311 18.6458 43.3737 18.9633L39.1415 20.7171C38.3921 18.9891 37.2741 17.4458 35.8659 16.195C35.912 16.1058 35.9321 16.0053 35.9239 15.9052C35.9287 15.7399 35.8867 15.5766 35.8027 15.4341C35.7187 15.2917 35.5962 15.1759 35.4492 15.1001C35.3022 15.0243 35.1367 14.9917 34.972 15.0059C34.8072 15.0201 34.6498 15.0806 34.518 15.1805C33.8519 14.7345 33.1544 14.3373 32.4309 13.992L34.1557 9.77433C34.5453 9.86615 34.955 9.81404 35.3093 9.6276C35.6635 9.44115 35.9384 9.13294 36.0833 8.75977C36.246 8.34313 36.2404 7.8796 36.0678 7.46699C35.8952 7.05437 35.5691 6.72493 35.1583 6.54818C34.7474 6.37143 34.284 6.36119 33.8657 6.51962C33.4475 6.67805 33.1071 6.99276 32.9164 7.39736C32.7659 7.77013 32.7509 8.18391 32.8741 8.56661C32.9972 8.94931 33.2507 9.27668 33.5904 9.4917L31.8367 13.6804C29.1065 12.6045 26.0925 12.4844 23.2853 13.3398C23.1643 13.1511 22.9983 12.9954 22.8022 12.8866C22.6062 12.7779 22.3862 12.7194 22.1621 12.7166H21.9374L20.575 9.44097C20.9049 9.21882 21.1506 8.89237 21.2728 8.51393C21.395 8.13549 21.3866 7.72698 21.249 7.35388C21.1648 7.13828 21.0381 6.94182 20.8764 6.77622C20.7147 6.61061 20.5214 6.47924 20.3079 6.38993C20.0943 6.30062 19.865 6.2552 19.6336 6.25637C19.4021 6.25754 19.1733 6.30528 18.9607 6.39674C18.7481 6.48821 18.5561 6.62152 18.3961 6.78875C18.2361 6.95599 18.1114 7.15371 18.0294 7.37015C17.9474 7.58658 17.9098 7.81731 17.9189 8.04857C17.9279 8.27984 17.9834 8.50692 18.0821 8.71628C18.2332 9.08442 18.5094 9.38735 18.8621 9.57165C19.2148 9.75595 19.6213 9.80976 20.0098 9.7236L21.3722 12.9992C21.1958 13.1182 21.0518 13.2792 20.9531 13.4676C20.8544 13.6561 20.8042 13.8662 20.8069 14.079C20.7968 14.1778 20.8197 14.2772 20.8721 14.3616C18.2821 15.7333 16.2371 17.947 15.0746 20.6374L10.8859 18.8909C10.9798 18.5021 10.9294 18.0924 10.7442 17.7379C10.5589 17.3834 10.2514 17.1082 9.87862 16.9632C9.45962 16.7825 8.98602 16.7757 8.56199 16.9442C8.13797 17.1128 7.79826 17.4428 7.61759 17.8618C7.43692 18.2808 7.4301 18.7544 7.59862 19.1784C7.76714 19.6025 8.09721 19.9422 8.5162 20.1228C8.88276 20.2732 9.29027 20.2911 9.66858 20.1734C10.0469 20.0556 10.3723 19.8097 10.5888 19.4779L14.7775 21.2316C14.2308 22.6319 13.9222 24.1138 13.8644 25.616C13.7259 25.6634 13.6069 25.7551 13.5257 25.8769C13.4445 25.9987 13.4056 26.1438 13.4151 26.2899C13.4144 26.4342 13.4567 26.5755 13.5368 26.6955C13.6168 26.8156 13.7309 26.909 13.8644 26.9639C13.9842 28.2566 14.2717 29.5282 14.7195 30.7467L10.5381 32.5222C10.3251 32.1814 10.002 31.9237 9.62231 31.7919C9.24266 31.66 8.82934 31.662 8.45098 31.7975C8.24351 31.887 8.0557 32.0164 7.89826 32.1785C7.74082 32.3405 7.61684 32.532 7.5334 32.7419C7.44996 32.9519 7.40868 33.1762 7.41194 33.4021C7.41519 33.628 7.46291 33.8511 7.55237 34.0586C7.64182 34.266 7.77127 34.4538 7.93331 34.6113C8.09535 34.7687 8.28682 34.8927 8.49677 34.9761C8.70673 35.0596 8.93106 35.1009 9.15697 35.0976C9.38288 35.0943 9.60593 35.0466 9.81339 34.9572C10.1828 34.8099 10.4873 34.5354 10.6721 34.1832C10.8568 33.831 10.9095 33.4244 10.8207 33.0368L15.0094 31.283C15.4689 32.3434 16.0791 33.3319 16.8211 34.218C16.7529 34.3582 16.7158 34.5114 16.7124 34.6673C16.7105 34.7862 16.7324 34.9042 16.7767 35.0146C16.8211 35.1249 16.8871 35.2252 16.9709 35.3096C17.0546 35.394 17.1544 35.4608 17.2643 35.5061C17.3743 35.5513 17.4921 35.5741 17.611 35.5732C17.7498 35.5591 17.8849 35.5198 18.0096 35.4572C19.1214 36.5213 20.4181 37.3735 21.836 37.9719L20.046 42.1606C19.6573 42.0691 19.2487 42.1214 18.8957 42.308C18.5426 42.4945 18.2691 42.8025 18.1256 43.1751C18.0361 43.3826 17.9884 43.6056 17.9851 43.8315C17.9819 44.0574 18.0232 44.2818 18.1066 44.4917C18.19 44.7017 18.314 44.8932 18.4715 45.0552C18.6289 45.2172 18.8167 45.3467 19.0242 45.4361C19.2316 45.5256 19.4547 45.5733 19.6806 45.5766C19.9065 45.5798 20.1308 45.5385 20.3408 45.4551C20.5508 45.3717 20.7422 45.2477 20.9043 45.0902C21.0663 44.9328 21.1957 44.745 21.2852 44.5375C21.4382 44.1662 21.4545 43.7526 21.3311 43.3704C21.2076 42.9881 20.9526 42.6622 20.6112 42.4504L22.3577 38.2617C23.8697 38.8646 25.484 39.1698 27.1117 39.1604C28.7354 39.1514 30.3438 38.8469 31.8584 38.2617L33.6121 42.5012C33.2803 42.7215 33.033 43.0479 32.9106 43.427C32.7882 43.806 32.7979 44.2154 32.9382 44.5883C33.0276 44.7957 33.1571 44.9835 33.3191 45.141C33.4812 45.2984 33.6726 45.4224 33.8826 45.5058C34.0925 45.5893 34.3169 45.6305 34.5428 45.6273C34.7687 45.624 34.9917 45.5763 35.1992 45.4869C35.4067 45.3974 35.5945 45.268 35.7519 45.1059C35.9094 44.9439 36.0333 44.7524 36.1168 44.5425C36.2002 44.3325 36.2415 44.1082 36.2383 43.8823C36.235 43.6564 36.1873 43.4333 36.0978 43.2258C35.9489 42.8525 35.671 42.5448 35.3147 42.3587C34.9584 42.1726 34.5472 42.1203 34.1557 42.2113L32.4092 37.9719C35.2355 36.7427 37.5428 34.5636 38.9314 31.812H39.0401C39.1732 31.818 39.3057 31.7898 39.4249 31.7302C39.5441 31.6706 39.6461 31.5815 39.7213 31.4714L43.3954 33.0005C43.3016 33.3893 43.3519 33.799 43.5372 34.1535C43.7224 34.508 44.03 34.7832 44.4027 34.9282C44.8258 35.0856 45.2923 35.08 45.7115 34.9126C46.1308 34.7452 46.4727 34.4279 46.671 34.0223C46.8419 33.6051 46.841 33.1372 46.6687 32.7206C46.4963 32.3039 46.1664 31.9722 45.7507 31.7975ZM22.3722 15.4269L24.8579 21.2968L22.3215 22.71C22.1591 22.5468 21.9705 22.4121 21.7635 22.3114L22.3722 15.4269ZM26.5609 26.5653L26.1116 27.6886L25.4594 27.0146L26.5609 26.5653ZM24.9231 26.5653L22.7491 24.4782L26.3725 26.0001L24.9231 26.5653ZM27.0972 26.79L28.3944 29.8989L26.5609 28.1741L27.0972 26.79ZM28.0538 30.4134C27.9455 30.622 27.886 30.8524 27.8799 31.0873V31.312L24.655 32.7614L26.2928 28.7466L28.0538 30.4134ZM29.2423 29.6887H29.0828L27.7857 26.5291L30.6844 27.7103L29.6771 29.7539C29.5463 29.7109 29.4069 29.7009 29.2713 29.7249L29.2423 29.6887ZM27.9089 26.0001L32.3729 24.1376L30.7859 27.1885L27.9089 26.0001ZM32.5469 25.2101L32.2135 27.8118L31.3584 27.4494L32.5469 25.2101ZM33.2715 24.413C33.3368 24.413 33.3368 24.413 33.3875 24.3478L38.069 30.1453L32.873 27.9712L33.2715 24.413ZM32.1483 23.5724L27.6842 25.4348L29.8583 20.1228H30.1409C30.2966 20.1186 30.4497 20.0815 30.5902 20.0141L32.3439 22.9129C32.2157 23.1161 32.1386 23.3473 32.1193 23.5868L32.1483 23.5724ZM29.3075 19.8982L27.1334 25.2101L25.6043 21.5867L29.0828 19.7388C29.1626 19.7895 29.2133 19.8402 29.322 19.8982H29.3075ZM26.5464 25.4348L22.6621 23.826V23.6013C22.672 23.4863 22.6494 23.3708 22.5969 23.268L25.0826 21.9056L26.5464 25.4348ZM21.3432 24.9275H21.4084L22.1983 27.7031L20.0242 28.6017L21.2635 24.9275H21.3432ZM21.9737 24.7608C22.0316 24.7608 22.0316 24.7029 22.0824 24.7029L24.3434 26.8769L22.7708 27.4494L21.9737 24.7608ZM24.7999 27.2972L25.8725 28.3118L24.1695 32.3845L22.9375 28.0871L24.7999 27.2972ZM28.119 31.8773C28.2402 32.0509 28.4018 32.1925 28.5899 32.2897C28.7781 32.3869 28.987 32.4369 29.1988 32.4353H29.4234L30.8728 35.9355L24.8217 33.3339L28.119 31.8773ZM29.996 32.1599C30.2775 31.9519 30.4775 31.6519 30.5612 31.312H31.7932L31.2859 35.276L29.996 32.1599ZM30.5612 30.7105C30.4843 30.4307 30.3283 30.1791 30.1119 29.9858L31.1192 27.9495L32.1338 28.348L31.8439 30.6598L30.5612 30.7105ZM32.7353 28.6234L37.54 30.6018L32.4671 30.667L32.7353 28.6234ZM33.8151 23.9854C33.9082 23.8554 33.9472 23.6943 33.9238 23.5361V23.4781L36.4094 22.4636L38.2719 29.638L33.8151 23.9854ZM33.6991 22.9129L33.5252 22.739L34.9746 17.0284L36.2138 21.8259L33.6991 22.9129ZM34.4238 16.4632L32.8947 22.565H32.786L31.0323 19.6663C31.1722 19.5382 31.2843 19.3826 31.3616 19.2093C31.4389 19.036 31.4797 18.8487 31.4816 18.659C31.4816 18.4851 31.4236 18.3691 31.4236 18.2097L34.4238 16.4632ZM28.7133 19.13L25.3217 20.9925L22.9013 15.195L23.0752 15.0211L28.6698 18.2966C28.6182 18.4405 28.5985 18.5937 28.6118 18.7459C28.6948 18.8722 28.7469 19.0162 28.764 19.1663L28.7133 19.13ZM21.6983 15.3399L21.1113 22.2752C20.9285 22.2954 20.7527 22.3568 20.5971 22.4547C20.4415 22.5526 20.31 22.6845 20.2127 22.8404L17.611 21.7606L21.6983 15.3399ZM19.9445 23.3115V23.71L15.0239 25.6594L17.2849 22.1592L19.9445 23.3115ZM14.9224 26.3696L20.1257 24.3333C20.224 24.4967 20.3608 24.6336 20.5243 24.7318L19.1619 28.9205L18.5966 29.1452L14.8137 26.4856C14.9732 26.4494 14.9732 26.3986 14.9732 26.3986L14.9224 26.3696ZM19.7199 29.3553L22.3215 28.2828L23.6115 32.5222L19.6619 29.7757L19.7199 29.3553ZM23.3433 33.0947L18.4299 34.1673C18.3824 34.0693 18.3032 33.9902 18.2053 33.9426L19.3938 30.3192L23.3433 33.0947ZM23.5027 33.718L22.9882 35.0804L19.3648 34.6311L23.5027 33.718ZM24.068 33.9933C24.1507 33.9956 24.233 33.9814 24.3101 33.9516C24.3873 33.9217 24.4577 33.8768 24.5173 33.8194L29.3147 35.9065L23.6042 35.1239L24.068 33.9933ZM31.8149 35.7471L32.3802 31.283L38.0255 31.1743L31.8149 35.7471ZM38.9893 29.8699L37.0109 22.2099L38.8227 21.4853C39.8923 24.1745 39.9719 27.1563 39.0473 29.8989L38.9893 29.8699ZM38.598 20.9272L36.8515 21.6519L35.5471 16.7386C36.8816 17.8733 37.9274 19.309 38.598 20.9272ZM34.1557 15.6008C34.1557 15.666 34.0977 15.7747 34.0977 15.8255V15.9994L31.0975 17.7531L30.8728 17.5285L32.1048 14.4775C32.824 14.783 33.511 15.1593 34.1557 15.6008ZM27.0972 13.4267C28.6442 13.4325 30.177 13.7223 31.6193 14.2819L30.409 17.3038H30.1264C29.7222 17.3099 29.3358 17.4707 29.0466 17.7531L23.452 14.4775C23.5039 14.3515 23.5238 14.2146 23.51 14.079V13.8978C24.6929 13.5965 25.9059 13.4288 27.1262 13.3978L27.0972 13.4267ZM21.1548 14.9558C21.1548 15.0138 21.22 15.0138 21.22 15.0645L17.0313 21.5142L15.6471 20.9272C16.757 18.3559 18.7098 16.2395 21.1837 14.9268L21.1548 14.9558ZM16.7632 21.9853L14.6398 25.2754C14.6975 23.9743 14.9845 22.6937 15.4877 21.4925L16.7632 21.9853ZM14.6398 27.0146L18.0893 29.4351L15.4225 30.5148C14.964 29.4012 14.6993 28.2174 14.6398 27.0146ZM18.6473 29.8409L18.9372 30.0148L17.698 33.7977C17.5966 33.7827 17.4933 33.806 17.4081 33.8629C16.7288 33.0072 16.1591 32.0699 15.7124 31.0729L18.6473 29.8409ZM18.5386 35.1021L22.836 35.6601L22.1113 37.4718C20.7737 36.9292 19.5588 36.1233 18.5386 35.1021ZM22.5969 37.6965L23.3868 35.7253L30.6337 36.624C30.6804 36.782 30.7754 36.9215 30.9053 37.0228C31.0353 37.1242 31.1937 37.1824 31.3584 37.1892L31.5323 37.6385C28.6725 38.8081 25.4716 38.8288 22.5969 37.6965ZM32.2135 37.4718L32.0323 37.0225C32.1773 36.8725 32.2602 36.6731 32.2642 36.4645V36.2906L38.2501 31.8773C36.928 34.3708 34.8002 36.3428 32.2135 37.4718Z" fill="#005487"/>
<path d="M22.3214 6.4332C22.4204 6.56962 22.4963 6.72142 22.546 6.8825C22.614 7.02313 22.6534 7.17585 22.662 7.33181L26.1115 4.7954C26.4061 4.57712 26.763 4.45929 27.1297 4.45929C27.4963 4.45929 27.8533 4.57712 28.1479 4.7954L31.5974 7.33181C31.6626 7.15788 31.6626 7.04193 31.7133 6.8825C31.7779 6.72779 31.853 6.57767 31.938 6.4332C32.1929 6.00081 32.5647 5.64915 33.0105 5.41863L29.5103 2.80976C28.838 2.2555 27.9938 1.95239 27.1224 1.95239C26.2511 1.95239 25.4069 2.2555 24.7346 2.80976L21.2126 5.42588C21.6749 5.64274 22.0613 5.99374 22.3214 6.4332Z" fill="#005487"/>
<path d="M31.9818 45.5668C31.8799 45.4322 31.8037 45.2799 31.7572 45.1175C31.6892 44.9769 31.6498 44.8242 31.6412 44.6682L28.1917 47.2046C27.8971 47.4229 27.5402 47.5407 27.1735 47.5407C26.8069 47.5407 26.4499 47.4229 26.1553 47.2046L22.7058 44.6682C22.6406 44.8421 22.6406 44.9581 22.5899 45.1175C22.5253 45.2722 22.4502 45.4223 22.3652 45.5668C22.1103 45.9992 21.7385 46.3509 21.2927 46.5814L24.8002 49.1903C25.4741 49.7501 26.3227 50.0566 27.1989 50.0566C28.0751 50.0566 28.9236 49.7501 29.5976 49.1903L33.0978 46.5886C32.6198 46.3858 32.2259 46.0251 31.9818 45.5668Z" fill="#005487"/>
<path d="M9.88586 15.5357L10.4004 15.7096C10.5497 15.7543 10.6863 15.8338 10.799 15.9415L11.4222 11.7021C11.4734 11.3454 11.6387 11.015 11.8935 10.7602C12.1482 10.5055 12.4787 10.3401 12.8353 10.2889L17.0747 9.6657C17.0095 9.54975 16.9008 9.37583 16.8501 9.25988C16.7994 9.14393 16.7341 8.92652 16.6762 8.7526C16.5552 8.274 16.5754 7.77063 16.7341 7.30322L12.415 7.88297C11.5456 7.96942 10.7331 8.35471 10.116 8.97315C9.49886 9.5916 9.11532 10.4049 9.03073 11.2745L8.40025 15.5719C8.88672 15.4504 9.39405 15.438 9.88586 15.5357Z" fill="#005487"/>
<path d="M44.3594 36.3988L43.8449 36.2249C43.6973 36.1798 43.5613 36.1031 43.4463 36.0002L42.8521 40.2397C42.7976 40.6003 42.6263 40.9331 42.3645 41.1871C42.1027 41.441 41.7648 41.6021 41.4027 41.6456L37.1633 42.276C37.2478 42.4032 37.3229 42.5364 37.3879 42.6746C37.4531 42.8485 37.5039 43.008 37.5691 43.1891C37.6856 43.6686 37.663 44.1714 37.5039 44.6385L41.8013 44.0153C42.671 43.9278 43.4837 43.5423 44.1018 42.9242C44.7199 42.3062 45.1053 41.4935 45.1928 40.6238L45.8161 36.3264C45.3478 36.4913 44.8417 36.5165 44.3594 36.3988Z" fill="#005487"/>
<path d="M8.0234 30.5727C8.16584 30.511 8.31782 30.4743 8.47271 30.464L5.9363 27.0145C5.71802 26.7199 5.60019 26.363 5.60019 25.9963C5.60019 25.6297 5.71802 25.2727 5.9363 24.9781L8.47271 21.5286C8.29879 21.4634 8.19008 21.4634 8.0234 21.4127C7.85673 21.3619 7.69005 21.2387 7.5741 21.188C7.14318 20.9313 6.79196 20.56 6.55954 20.1155L3.96515 23.6157C3.40262 24.2885 3.09442 25.1375 3.09442 26.0144C3.09442 26.8914 3.40262 27.7404 3.96515 28.4132L6.55954 31.9134C6.80938 31.4816 7.15683 31.1143 7.5741 30.8409C7.70067 30.7174 7.85462 30.6255 8.0234 30.5727Z" fill="#005487"/>
<path d="M50.2944 23.5727L47.7 20.0725C47.4504 20.5065 47.103 20.8762 46.6854 21.1523C46.5465 21.2472 46.3954 21.3228 46.2361 21.3769C46.0937 21.4386 45.9417 21.4754 45.7868 21.4856L48.3232 24.9352C48.5421 25.2309 48.6602 25.5891 48.6602 25.957C48.6602 26.3249 48.5421 26.6831 48.3232 26.9788L45.7868 30.4283C45.9607 30.4863 46.0694 30.4863 46.2361 30.537C46.4028 30.5877 46.5695 30.7109 46.6854 30.7616C47.1163 31.0184 47.4676 31.3897 47.7 31.8342L50.2944 28.3412C50.8574 27.6743 51.1662 26.8297 51.1662 25.957C51.1662 25.0842 50.8574 24.2396 50.2944 23.5727Z" fill="#005487"/>
<path d="M11.4586 40.2471L10.8353 36.0149C10.7266 36.0729 10.5527 36.1888 10.4367 36.2395L9.92222 36.4135C9.44272 36.53 8.93993 36.5074 8.47284 36.3482L9.09607 40.6456C9.18199 41.5147 9.56597 42.3273 10.1828 42.9455C10.7997 43.5637 11.6115 43.9494 12.4804 44.0372L16.785 44.6604C16.6559 44.1881 16.6337 43.693 16.7198 43.211C16.785 43.0299 16.8358 42.8704 16.8937 42.6965C16.9371 42.5482 17.0139 42.4118 17.1184 42.2979L12.8862 41.6675C12.5191 41.6365 12.1748 41.4771 11.9136 41.2173C11.6525 40.9575 11.4914 40.614 11.4586 40.2471Z" fill="#005487"/>
<path d="M42.852 11.7023L43.4752 15.9418C43.5912 15.8765 43.7651 15.7606 43.8738 15.7099L44.3883 15.5359C44.8678 15.419 45.3707 15.4416 45.8377 15.6012L45.2145 11.3038C45.1365 10.4301 44.7568 9.61086 44.1406 8.98668C43.5243 8.36251 42.71 7.97236 41.8374 7.88324L37.5328 7.26001C37.6653 7.73175 37.6876 8.22765 37.598 8.70938C37.5328 8.89055 37.4893 9.04999 37.4241 9.22391C37.3807 9.37224 37.3039 9.50862 37.1994 9.62249L41.4388 10.253C41.8027 10.3012 42.1399 10.4704 42.3961 10.7332C42.6524 10.996 42.8129 11.3373 42.852 11.7023Z" fill="#005487"/>
<path d="M65.8243 17.7897H64.7083L64.1575 16.2244H61.7443L61.2226 17.7897H60.1065L62.4183 11.6516H63.5705L65.8243 17.7897ZM63.8677 15.3982L63.0343 12.956C63.0005 12.83 62.9763 12.7016 62.9618 12.572C62.9462 12.7027 62.917 12.8314 62.8748 12.956L62.0342 15.4055L63.8677 15.3982Z" fill="#005487"/>
<path d="M71.0348 12.1008L67.6723 16.9272H70.9986V17.7896H66.2446V17.3041L69.6217 12.5067H66.5128V11.666H71.0348V12.1008Z" fill="#005487"/>
<path d="M71.5858 14.289H76.2456C76.2155 13.7783 75.9866 13.2996 75.6078 12.9556C75.2068 12.6091 74.6879 12.4301 74.1585 12.4556C73.5391 12.4406 72.9308 12.6206 72.4192 12.9701V12.028C72.9842 11.7164 73.6222 11.5612 74.2672 11.5787C74.6785 11.5542 75.0903 11.6164 75.4761 11.7612C75.8618 11.906 76.2129 12.1302 76.5065 12.4193C76.7871 12.7295 77.0033 13.0922 77.1426 13.4866C77.2819 13.8809 77.3416 14.299 77.3181 14.7166C77.3464 15.5572 77.0565 16.3776 76.5065 17.0138C76.234 17.3171 75.8977 17.5563 75.5218 17.7141C75.1459 17.872 74.7397 17.9447 74.3324 17.9269C73.9403 17.9498 73.5485 17.8789 73.1893 17.7201C72.8301 17.5613 72.514 17.3192 72.267 17.0138C71.7503 16.2036 71.5112 15.2471 71.5858 14.289ZM76.2456 15.1297H72.6874C72.6734 15.6304 72.8407 16.1193 73.1584 16.5066C73.3152 16.6772 73.5072 16.8117 73.7212 16.9005C73.9353 16.9894 74.1661 17.0305 74.3976 17.0211C74.6362 17.0264 74.8733 16.9836 75.095 16.8952C75.3166 16.8068 75.5182 16.6746 75.6876 16.5066C76.0243 16.1242 76.2211 15.6386 76.2456 15.1297Z" fill="#005487"/>
<path d="M83.1951 17.7897H81.9848L81.0137 16.1519C80.9352 16.016 80.8481 15.8853 80.7529 15.7606C80.6747 15.6628 80.5846 15.5751 80.4847 15.4997C80.3954 15.4404 80.3008 15.3895 80.2021 15.3475C80.0871 15.313 79.967 15.2983 79.847 15.304H79.4339V17.7897H78.4266V11.6516H80.434C80.7054 11.6509 80.9757 11.685 81.2384 11.7531C81.4695 11.8137 81.6863 11.9196 81.8761 12.0647C82.0542 12.2013 82.1981 12.3775 82.2964 12.5792C82.4018 12.806 82.4539 13.0539 82.4486 13.3039C82.4485 13.5063 82.4142 13.7072 82.3472 13.8982C82.2902 14.0796 82.1965 14.2473 82.0718 14.3909C81.9524 14.5339 81.8104 14.6563 81.6515 14.7533C81.4745 14.8543 81.2842 14.9299 81.0862 14.9779C81.1924 15.0367 81.2899 15.1099 81.3761 15.1953C81.4629 15.2676 81.5429 15.3477 81.6152 15.4345C81.6877 15.507 81.7602 15.6084 81.8399 15.7026C81.9196 15.7968 81.9848 15.9345 82.0718 16.0577L83.1951 17.7897ZM79.4702 12.485V14.4779H80.3253C80.4739 14.4781 80.6212 14.4511 80.7601 14.3982C80.8906 14.3556 81.0096 14.2837 81.108 14.188C81.2109 14.0957 81.2882 13.9784 81.3326 13.8474C81.39 13.7096 81.4196 13.5619 81.4196 13.4126C81.4272 13.2847 81.4065 13.1566 81.3589 13.0376C81.3113 12.9185 81.238 12.8115 81.1442 12.7242C80.917 12.5484 80.6338 12.4609 80.347 12.4778H79.4702V12.485Z" fill="#005487"/>
<path d="M83.9128 17.7893V11.6512H85.8622C86.3744 11.6162 86.8838 11.7513 87.3116 12.0352C87.4743 12.1493 87.6069 12.3013 87.6978 12.4781C87.7887 12.6548 87.8352 12.851 87.8333 13.0498C87.8409 13.3791 87.7361 13.7011 87.5362 13.9629C87.3245 14.2243 87.0392 14.4161 86.7173 14.5137C87.0994 14.5391 87.4595 14.7011 87.7319 14.9702C87.9873 15.2507 88.1226 15.6202 88.1087 15.9993C88.1133 16.246 88.0591 16.4904 87.9508 16.7121C87.8424 16.9339 87.683 17.1267 87.4855 17.2747C87.0344 17.6104 86.4821 17.7818 85.9202 17.7603H83.949L83.9128 17.7893ZM84.9201 12.4773V14.2238H85.6085C85.906 14.2365 86.1992 14.1498 86.4419 13.9774C86.5465 13.8894 86.6286 13.7777 86.6815 13.6517C86.7344 13.5258 86.7566 13.389 86.7463 13.2527C86.7463 12.7309 86.3912 12.47 85.6955 12.47L84.9201 12.4773ZM84.9201 15.0354V16.9776H85.7825C86.0978 16.9993 86.4101 16.9038 86.6593 16.7095C86.7643 16.6214 86.8471 16.51 86.9012 16.3841C86.9554 16.2583 86.9792 16.1215 86.971 15.9848C86.971 15.3471 86.5361 15.0354 85.6448 15.0354H84.9201Z" fill="#005487"/>
<path d="M94.2321 17.7897H93.1233L92.5725 16.2244H90.1593L89.6303 17.7897H88.507L90.8043 11.6516H91.9566L94.2321 17.7897ZM92.3117 15.3982L91.4565 12.956C91.4228 12.83 91.3986 12.7016 91.3841 12.572C91.3684 12.7027 91.3393 12.8314 91.2971 12.956L90.4637 15.4055L92.3117 15.3982Z" fill="#005487"/>
<path d="M98.6961 11.6661L96.6815 15.5649V17.7897H95.6741V15.5722L93.7102 11.6516H94.8697L96.0727 14.275C96.0727 14.3112 96.1307 14.4272 96.1959 14.6228C96.2314 14.503 96.2775 14.3866 96.3336 14.275L97.5946 11.6516H98.6816L98.6961 11.6661Z" fill="#005487"/>
<path d="M103.544 17.5364C103.007 17.7934 102.415 17.9177 101.819 17.8987C101.419 17.9217 101.018 17.8593 100.643 17.7157C100.268 17.572 99.9281 17.3503 99.6454 17.0653C99.0969 16.4606 98.8103 15.6633 98.8482 14.8478C98.8294 14.4125 98.8993 13.9779 99.0538 13.5705C99.2083 13.1631 99.4441 12.7914 99.7469 12.4781C100.046 12.1778 100.404 11.9418 100.797 11.7848C101.191 11.6278 101.613 11.553 102.037 11.565C102.531 11.5543 103.023 11.6379 103.486 11.8114V12.8259C103.074 12.5834 102.602 12.4582 102.124 12.4636C101.826 12.4541 101.53 12.5058 101.253 12.6155C100.977 12.7252 100.725 12.8905 100.515 13.1013C100.304 13.3296 100.14 13.5979 100.035 13.8904C99.9287 14.1829 99.8826 14.4937 99.899 14.8043C99.8819 15.0977 99.9245 15.3916 100.024 15.6681C100.124 15.9446 100.278 16.1981 100.479 16.4131C100.674 16.6131 100.909 16.77 101.169 16.8736C101.428 16.9772 101.707 17.0252 101.986 17.0146C102.516 17.0287 103.038 16.8849 103.486 16.6015V17.5364H103.544Z" fill="#005487"/>
<path d="M109.748 17.7897H108.632L108.074 16.2244H105.66L105.175 17.7897H104.059L106.363 11.6516H107.516L109.748 17.7897ZM107.805 15.3982L106.958 12.956C106.924 12.83 106.9 12.7016 106.885 12.572C106.869 12.7027 106.84 12.8314 106.798 12.956L105.958 15.4055L107.805 15.3982Z" fill="#005487"/>
<path d="M115.784 17.7897H114.668L111.77 13.2749C111.696 13.1653 111.633 13.0488 111.581 12.9271C111.619 13.2031 111.634 13.4819 111.625 13.7604V17.7897H110.632V11.6516H111.82L114.647 16.0505C114.732 16.1692 114.808 16.2953 114.871 16.4273C114.839 16.1532 114.827 15.877 114.835 15.6012V11.6516H115.806V17.7897H115.784Z" fill="#005487"/>
<path d="M124.459 17.7897H123.292L122.314 16.1519C122.235 16.016 122.148 15.8853 122.053 15.7606C121.977 15.6629 121.89 15.5752 121.792 15.4997C121.7 15.4404 121.603 15.3895 121.502 15.3475C121.39 15.3125 121.272 15.2978 121.154 15.304H120.741V17.7897H119.727V11.6516H121.741C122.013 11.6509 122.283 11.685 122.546 11.7531C122.775 11.8139 122.989 11.9198 123.176 12.0647C123.357 12.2005 123.503 12.3767 123.604 12.5792C123.709 12.806 123.761 13.0539 123.756 13.3039C123.756 13.5063 123.722 13.7072 123.655 13.8982C123.592 14.077 123.499 14.2437 123.379 14.3909C123.259 14.5357 123.114 14.6583 122.952 14.7533C122.778 14.8553 122.59 14.931 122.394 14.9779C122.498 15.0367 122.593 15.1099 122.676 15.1953C122.766 15.2638 122.847 15.3443 122.915 15.4345C122.998 15.5174 123.073 15.6071 123.14 15.7026C123.22 15.8041 123.292 15.9345 123.379 16.0577L124.459 17.7897ZM120.734 12.485V14.4779H121.582C121.733 14.4786 121.883 14.4516 122.024 14.3982C122.154 14.3539 122.272 14.2822 122.372 14.188C122.475 14.0957 122.552 13.9784 122.596 13.8474C122.654 13.7096 122.683 13.5619 122.683 13.4126C122.691 13.2847 122.67 13.1566 122.623 13.0376C122.575 12.9185 122.502 12.8115 122.408 12.7242C122.181 12.5484 121.898 12.4609 121.611 12.4778H120.734V12.485Z" fill="#005487"/>
<path d="M128.611 17.7897H125.169V11.6516H128.474V12.514H126.191V14.2532H128.3V15.1301H126.191V16.9418H128.619L128.611 17.7897Z" fill="#005487"/>
<path d="M129.423 17.551V16.5002C129.519 16.5945 129.632 16.6707 129.756 16.7249C129.889 16.7941 130.027 16.8523 130.169 16.8988C130.311 16.9467 130.457 16.9854 130.604 17.0148C130.739 17.0246 130.875 17.0246 131.01 17.0148C131.34 17.0364 131.669 16.9635 131.959 16.8046C132.06 16.7346 132.142 16.64 132.197 16.5297C132.251 16.4194 132.277 16.297 132.271 16.1741C132.273 16.0437 132.238 15.9153 132.169 15.8045C132.096 15.6873 131.997 15.5883 131.879 15.5147C131.742 15.4194 131.597 15.3369 131.445 15.2683L130.894 15.0146C130.684 14.9059 130.495 14.79 130.307 14.674C130.137 14.5708 129.982 14.4466 129.843 14.3044C129.702 14.163 129.593 13.9942 129.52 13.8084C129.448 13.6226 129.415 13.4239 129.423 13.2246C129.417 12.9693 129.485 12.7178 129.618 12.5C129.747 12.2866 129.923 12.1056 130.133 11.9709C130.358 11.8313 130.602 11.7263 130.858 11.6593C131.129 11.5994 131.406 11.5678 131.684 11.5651C132.159 11.5389 132.635 11.6104 133.082 11.7753V12.7753C132.687 12.5095 132.217 12.3774 131.742 12.3985C131.591 12.4001 131.441 12.4122 131.292 12.4347C131.154 12.463 131.02 12.5093 130.894 12.5724C130.783 12.6388 130.684 12.7247 130.604 12.8261C130.54 12.9362 130.507 13.0612 130.507 13.1884C130.507 13.3156 130.54 13.4406 130.604 13.5508C130.67 13.6577 130.756 13.7511 130.858 13.8261C130.983 13.918 131.116 13.998 131.256 14.0653C131.416 14.1378 131.59 14.2247 131.807 14.3117C132.024 14.3986 132.22 14.5363 132.401 14.6595C132.581 14.7801 132.749 14.9185 132.901 15.0726C133.049 15.2135 133.165 15.3838 133.242 15.5726C133.329 15.766 133.371 15.9766 133.365 16.1886C133.377 16.4621 133.312 16.7334 133.177 16.9713C133.052 17.1858 132.878 17.3672 132.669 17.5003C132.445 17.6361 132.2 17.734 131.945 17.7902C131.656 17.8496 131.362 17.8787 131.068 17.8771C130.966 17.8771 130.843 17.8771 130.691 17.8771L130.234 17.8192C130.079 17.7925 129.927 17.7537 129.778 17.7032C129.653 17.6686 129.534 17.6174 129.423 17.551Z" fill="#005487"/>
<path d="M135.482 15.5652V17.79H134.467V11.6519H136.337C136.923 11.6139 137.504 11.7861 137.974 12.1374C138.172 12.309 138.328 12.5236 138.43 12.7648C138.532 13.0061 138.577 13.2675 138.561 13.5288C138.572 13.8002 138.523 14.0705 138.418 14.3209C138.312 14.5713 138.154 14.7956 137.953 14.9782C137.501 15.3732 136.914 15.576 136.315 15.5435H135.489L135.482 15.5652ZM135.482 12.4998V14.7391H136.148C136.506 14.761 136.86 14.6557 137.148 14.4419C137.262 14.3318 137.351 14.1983 137.408 14.0508C137.466 13.9032 137.491 13.7449 137.482 13.5868C137.482 12.8621 137.054 12.4998 136.221 12.4998H135.482Z" fill="#005487"/>
<path d="M144.308 15.3114C144.308 17.0361 143.496 17.8985 141.859 17.8985C140.221 17.8985 139.518 17.0724 139.518 15.4128V11.6662H140.532V15.2027C140.532 16.3984 140.996 16.9999 141.931 16.9999C142.866 16.9999 143.279 16.4274 143.279 15.2606V11.6372H144.308V15.2606V15.3114Z" fill="#005487"/>
<path d="M145.757 17.7898V11.6517H147.707C148.219 11.6157 148.729 11.7508 149.156 12.0358C149.321 12.1481 149.456 12.2996 149.548 12.4766C149.64 12.6536 149.687 12.8507 149.685 13.0503C149.691 13.3805 149.583 13.7026 149.381 13.9635C149.173 14.226 148.89 14.4183 148.569 14.5142C148.951 14.5415 149.31 14.7033 149.584 14.9708C149.839 15.2513 149.974 15.6207 149.96 15.9998C149.964 16.2471 149.908 16.4916 149.798 16.7133C149.689 16.935 149.528 17.1276 149.33 17.2753C148.882 17.611 148.332 17.7824 147.772 17.7608H145.757V17.7898ZM146.772 12.4778V14.2243H147.431C147.731 14.2381 148.027 14.1514 148.272 13.9779C148.375 13.8892 148.456 13.7772 148.507 13.6513C148.559 13.5253 148.58 13.3889 148.569 13.2533C148.569 12.7315 148.221 12.4706 147.518 12.4706L146.772 12.4778ZM146.772 15.036V16.9782H147.634C147.95 16.9999 148.262 16.9044 148.511 16.71C148.616 16.622 148.699 16.5105 148.753 16.3847C148.807 16.2589 148.831 16.1221 148.823 15.9853C148.823 15.3476 148.381 15.036 147.496 15.036H146.772Z" fill="#005487"/>
<path d="M154.454 17.7897H151.055V11.6516H152.069V16.9273H154.454V17.7897Z" fill="#005487"/>
<path d="M155.816 11.0863C155.681 11.085 155.55 11.0363 155.447 10.9486C155.398 10.905 155.359 10.8513 155.333 10.7913C155.306 10.7313 155.293 10.6663 155.294 10.6008C155.294 10.5354 155.307 10.4705 155.333 10.4106C155.359 10.3506 155.398 10.2969 155.447 10.2529C155.495 10.2058 155.553 10.1692 155.617 10.1455C155.681 10.1218 155.748 10.1115 155.816 10.1152C155.954 10.1128 156.089 10.1619 156.193 10.2529C156.243 10.296 156.282 10.3495 156.308 10.4097C156.335 10.4699 156.347 10.5351 156.345 10.6008C156.346 10.6663 156.333 10.7313 156.307 10.7913C156.281 10.8513 156.242 10.905 156.193 10.9486C156.143 10.9964 156.084 11.0332 156.019 11.0569C155.954 11.0806 155.885 11.0906 155.816 11.0863ZM156.36 17.7897H155.309V11.6516H156.36V17.7897Z" fill="#005487"/>
<path d="M162.505 17.7896H161.179L159.041 14.9851C158.989 14.9177 158.94 14.8476 158.896 14.7749V17.8041H157.881V11.666H158.896V14.5648C158.938 14.4909 158.987 14.4206 159.041 14.3546L161.106 11.6805H162.331L159.918 14.5793L162.505 17.7896Z" fill="#005487"/>
<path d="M168.259 17.7897H167.143L166.592 16.2244H164.179L163.657 17.7897H162.541L164.846 11.6516H165.991L168.259 17.7897ZM166.317 15.3982L165.469 12.956C165.435 12.83 165.411 12.7016 165.397 12.572C165.386 12.7021 165.361 12.8308 165.324 12.956L164.483 15.4055L166.317 15.3982Z" fill="#005487"/>
<path d="M168.817 17.551V16.5002C168.917 16.5931 169.032 16.669 169.157 16.7249C169.29 16.7941 169.428 16.8523 169.571 16.8988C169.712 16.9484 169.858 16.9872 170.005 17.0148C170.138 17.0242 170.271 17.0242 170.404 17.0148C170.734 17.0384 171.064 16.9654 171.353 16.8046C171.456 16.7354 171.539 16.6412 171.595 16.5308C171.651 16.4205 171.677 16.2977 171.672 16.1741C171.672 16.044 171.637 15.9164 171.571 15.8045C171.493 15.6906 171.395 15.5923 171.281 15.5147C171.144 15.4194 170.998 15.3369 170.846 15.2683L170.295 15.0146C170.078 14.9059 169.897 14.79 169.708 14.674C169.537 14.5726 169.381 14.4482 169.244 14.3044C169.114 14.1696 169.008 14.0125 168.933 13.8406C168.85 13.6462 168.81 13.436 168.817 13.2246C168.814 12.9687 168.884 12.7172 169.02 12.5C169.146 12.285 169.323 12.1035 169.534 11.9709C169.759 11.8313 170.003 11.7263 170.259 11.6593C170.528 11.5998 170.802 11.5682 171.078 11.5651C171.556 11.5389 172.034 11.6104 172.484 11.7753V12.7753C172.088 12.5113 171.619 12.3794 171.143 12.3985C170.993 12.3998 170.842 12.4119 170.694 12.4347C170.555 12.461 170.421 12.5073 170.295 12.5724C170.181 12.6348 170.082 12.7214 170.005 12.8261C169.942 12.9362 169.908 13.0612 169.908 13.1884C169.908 13.3156 169.942 13.4406 170.005 13.5507C170.069 13.6576 170.153 13.7511 170.252 13.8261C170.379 13.9148 170.512 13.9947 170.65 14.0653L171.201 14.3117C171.418 14.4276 171.614 14.5363 171.803 14.6595C171.983 14.7801 172.15 14.9185 172.303 15.0726C172.448 15.215 172.564 15.385 172.643 15.5726C172.73 15.766 172.773 15.9766 172.766 16.1886C172.775 16.4616 172.71 16.7319 172.578 16.9713C172.453 17.1877 172.276 17.3696 172.063 17.5003C171.84 17.6368 171.595 17.7348 171.339 17.7902C171.05 17.8496 170.756 17.8787 170.462 17.8771C170.36 17.8771 170.237 17.8771 170.085 17.8771L169.621 17.8192C169.469 17.7916 169.319 17.7529 169.172 17.7032C169.048 17.6678 168.928 17.6166 168.817 17.551Z" fill="#005487"/>
<path d="M174.904 17.7897H173.854V11.6516H174.904V17.7897Z" fill="#005487"/>
<path d="M65.52 29.0368H64.3315L63.3604 27.399C63.2837 27.2643 63.1965 27.1358 63.0995 27.0149C63.0252 26.9116 62.9347 26.821 62.8314 26.7468C62.7434 26.6871 62.6485 26.6384 62.5487 26.6018C62.4365 26.5652 62.3189 26.5481 62.2009 26.5511H61.7878V29.0368H60.7733V22.8987H62.7879C63.0568 22.8984 63.3247 22.9325 63.585 23.0001C63.815 23.0638 64.0312 23.1694 64.2228 23.3118C64.401 23.4501 64.5469 23.6257 64.6503 23.8263C64.7498 24.0547 64.7992 24.3018 64.7953 24.551C64.7951 24.7557 64.7608 24.959 64.6938 25.1525C64.6348 25.3293 64.5439 25.4939 64.4257 25.638C64.1679 25.937 63.8191 26.1432 63.4329 26.225C63.5398 26.2795 63.6376 26.3504 63.7227 26.4352C63.8078 26.5093 63.8877 26.5892 63.9619 26.6743C64.0416 26.762 64.1166 26.8539 64.1865 26.9497C64.259 27.0511 64.3315 27.1743 64.4257 27.2975L65.52 29.0368ZM61.7951 23.7393V25.725H62.6502C62.7983 25.7275 62.9457 25.7029 63.085 25.6525C63.2159 25.6073 63.3349 25.533 63.4329 25.4351C63.5357 25.3456 63.6132 25.2307 63.6575 25.1017C63.7148 24.9614 63.7443 24.8113 63.7445 24.6597C63.7521 24.5328 63.7313 24.4058 63.6837 24.288C63.636 24.1701 63.5627 24.0644 63.4691 23.9785C63.2449 23.7964 62.9601 23.7058 62.6719 23.7248H61.7951V23.7393Z" fill="#005487"/>
<path d="M65.8316 25.5365H70.4985C70.4729 25.0163 70.2438 24.527 69.8608 24.1741C69.4579 23.8308 68.9403 23.6523 68.4114 23.6741C67.794 23.6567 67.1872 23.8369 66.6794 24.1886V23.2537C67.242 22.9352 67.8812 22.7773 68.5274 22.7972C68.9387 22.7727 69.3506 22.8349 69.7363 22.9797C70.1221 23.1245 70.4731 23.3487 70.7667 23.6378C71.0466 23.9484 71.2624 24.3112 71.4017 24.7055C71.541 25.0997 71.601 25.5176 71.5783 25.9351C71.6049 26.7776 71.3154 27.5997 70.7667 28.2396C70.4939 28.5425 70.1576 28.7814 69.7817 28.9392C69.4059 29.097 68.9999 29.1699 68.5926 29.1527C68.2019 29.1732 67.8119 29.1012 67.4543 28.9425C67.0966 28.7839 66.7815 28.543 66.5345 28.2396C66.0021 27.4436 65.7544 26.491 65.8316 25.5365ZM70.4985 26.3844H66.9331C66.9185 26.8864 67.0887 27.3764 67.4114 27.7613C67.5666 27.934 67.7584 28.0698 67.9728 28.1588C68.1872 28.2478 68.4188 28.2878 68.6506 28.2758C68.8884 28.2836 69.1252 28.2418 69.346 28.1533C69.5668 28.0647 69.7668 27.9312 69.9333 27.7613C70.2834 27.3867 70.4844 26.897 70.4985 26.3844Z" fill="#005487"/>
<path d="M75.2308 29.1383C74.8129 29.1426 74.3985 29.0613 74.0133 28.8992C73.6626 28.7544 73.3464 28.5371 73.0857 28.2615C72.8294 27.9758 72.6301 27.6437 72.4987 27.2831C72.3545 26.8786 72.2833 26.4516 72.2885 26.0222C72.2842 25.5691 72.3552 25.1185 72.4987 24.6888C72.6257 24.3078 72.8306 23.9574 73.1002 23.6597C73.3636 23.3737 73.6881 23.1508 74.0495 23.0075C74.4499 22.8554 74.875 22.7793 75.3032 22.7828C75.7053 22.7818 76.1039 22.8581 76.4772 23.0075C76.8271 23.1559 77.1415 23.3766 77.4001 23.6551C77.6586 23.9336 77.8553 24.2637 77.9773 24.6235C78.1199 25.0235 78.191 25.4454 78.1875 25.87C78.1973 26.4161 78.0962 26.9584 77.8904 27.4643C77.7016 27.895 77.4075 28.2713 77.0352 28.5586L78.8107 29.8485H77.2599L76.1874 29.0151C76.0352 29.0514 75.883 29.0876 75.7308 29.1093C75.5653 29.1341 75.398 29.1438 75.2308 29.1383ZM75.2815 23.7032C75.0313 23.7038 74.7842 23.7582 74.5568 23.8626C74.3243 23.9706 74.1189 24.129 73.9553 24.3264C73.7806 24.5402 73.6501 24.7865 73.5712 25.0511C73.3876 25.6583 73.3876 26.3063 73.5712 26.9135C73.646 27.1783 73.7743 27.4249 73.9481 27.6382C74.1057 27.8357 74.3065 27.9943 74.5351 28.102C74.7609 28.2109 75.0091 28.2655 75.2598 28.2615C75.5303 28.2687 75.7993 28.2193 76.0497 28.1165C76.2789 28.0165 76.4822 27.8653 76.6439 27.6745C76.8237 27.4652 76.9527 27.2172 77.0207 26.9498C77.1132 26.6419 77.1596 26.3219 77.1584 26.0004C77.1649 25.6701 77.1234 25.3405 77.0352 25.0221C76.9575 24.7613 76.8349 24.5161 76.6729 24.2974C76.5161 24.1027 76.3148 23.9486 76.0859 23.8481C75.8288 23.7513 75.5562 23.7022 75.2815 23.7032Z" fill="#005487"/>
<path d="M78.9194 25.5366H83.5864C83.5569 25.0174 83.3285 24.5294 82.9487 24.1742C82.5457 23.831 82.0281 23.6524 81.4993 23.6742C80.8819 23.6568 80.2751 23.8371 79.7673 24.1887V23.2539C80.3298 22.9353 80.9691 22.7774 81.6152 22.7973C82.0264 22.7737 82.4381 22.8363 82.8237 22.9811C83.2093 23.1259 83.5604 23.3496 83.8545 23.638C84.1344 23.9486 84.3502 24.3114 84.4895 24.7056C84.6288 25.0999 84.6888 25.5177 84.6662 25.9352C84.6927 26.7778 84.4032 27.5998 83.8545 28.2397C83.5808 28.5414 83.2443 28.7795 82.8687 28.9372C82.4931 29.095 82.0875 29.1686 81.6805 29.1528C81.2897 29.1733 80.8997 29.1013 80.5421 28.9427C80.1845 28.784 79.8693 28.5432 79.6223 28.2397C79.09 27.4437 78.8422 26.4912 78.9194 25.5366ZM83.5864 26.3845H80.0209C80.0064 26.8866 80.1766 27.3765 80.4992 27.7614C80.6536 27.9331 80.8442 28.0684 81.0573 28.1573C81.2704 28.2463 81.5005 28.2868 81.7312 28.276C81.97 28.2834 82.2078 28.2416 82.4297 28.153C82.6517 28.0645 82.853 27.9312 83.0211 27.7614C83.3712 27.3868 83.5722 26.8971 83.5864 26.3845Z" fill="#005487"/>
<path d="M92.3842 29.0369H91.4058V25.0729C91.4058 24.754 91.4058 24.3482 91.4711 23.8917C91.4339 24.0866 91.3806 24.2781 91.3116 24.4642L89.4854 29.0514H88.7607L86.9273 24.5004C86.8765 24.3627 86.8258 24.1598 86.7606 23.8917C86.7606 24.1381 86.7606 24.5366 86.7606 25.0874V29.0514H85.8185V22.9133H87.2679L88.8767 27.0006C88.9759 27.2352 89.0559 27.4776 89.1158 27.7252C89.18 27.4761 89.2674 27.2335 89.3767 27.0006L91.0145 22.9423H92.3987V29.0514L92.3842 29.0369Z" fill="#005487"/>
<path d="M93.5798 28.7978V27.747C93.6801 27.8421 93.7951 27.9204 93.9204 27.9789C94.0526 28.0438 94.188 28.1019 94.3262 28.1528C94.4699 28.2027 94.6179 28.239 94.7683 28.2615C94.8996 28.2867 95.0331 28.2988 95.1669 28.2977C95.497 28.3214 95.8269 28.2484 96.1162 28.0876C96.2279 28.0231 96.3203 27.9301 96.384 27.818C96.4477 27.7059 96.4803 27.5788 96.4786 27.4499C96.4822 27.317 96.4469 27.1861 96.3771 27.073C96.3021 26.9593 96.2062 26.861 96.0945 26.7832C95.9558 26.6864 95.8077 26.6039 95.6524 26.5368L95.1089 26.2831C94.8915 26.1744 94.7031 26.0585 94.5146 25.9498C94.3474 25.8435 94.1941 25.717 94.0581 25.5729C93.926 25.4393 93.8202 25.282 93.7465 25.1091C93.6537 24.9363 93.597 24.7465 93.5798 24.5511C93.5781 24.2953 93.6484 24.0441 93.7827 23.8264C93.9091 23.6156 94.0828 23.4369 94.29 23.3047C94.5137 23.1634 94.7583 23.0583 95.0147 22.993C95.2852 22.9272 95.5624 22.8932 95.8408 22.8916C96.3165 22.8645 96.7927 22.936 97.2395 23.1017V24.1018C96.8452 23.8402 96.379 23.7084 95.9061 23.725C95.7552 23.7247 95.6047 23.7393 95.4567 23.7685C95.3161 23.7877 95.1807 23.8345 95.0582 23.9061C94.9431 23.9637 94.8436 24.0482 94.7683 24.1525C94.6903 24.2625 94.6497 24.3946 94.6523 24.5294C94.649 24.6511 94.6791 24.7714 94.7393 24.8772C94.8058 24.9842 94.8918 25.0776 94.9929 25.1526C95.1164 25.247 95.2501 25.3272 95.3915 25.3918L95.9423 25.6381C96.1486 25.7463 96.3494 25.8648 96.5438 25.9932C96.7272 26.1093 96.8952 26.2481 97.0438 26.4063C97.1886 26.5479 97.3022 26.7182 97.3772 26.9063C97.4668 27.0966 97.5114 27.3049 97.5076 27.5151C97.515 27.7903 97.4501 28.0627 97.3192 28.305C97.1881 28.5146 97.0124 28.6928 96.8047 28.8268C96.5812 28.9636 96.3362 29.0617 96.08 29.1166C95.7916 29.1764 95.4976 29.2056 95.2031 29.2036C95.1089 29.2036 94.9784 29.2036 94.8335 29.2036C94.6886 29.2036 94.5291 29.2036 94.3697 29.1456C94.2173 29.1181 94.0671 29.0793 93.9204 29.0297C93.7969 28.9682 93.6823 28.8902 93.5798 28.7978Z" fill="#005487"/>
<path d="M103.726 29.0365H102.61L102.037 27.4494H99.6238L99.0948 29.0075H97.986L100.283 22.8694H101.436L103.726 29.0365ZM101.791 26.6522L100.935 24.2028C100.891 24.0797 100.855 23.9538 100.827 23.826C100.812 23.9591 100.783 24.0903 100.74 24.2173L99.9064 26.6667L101.791 26.6522Z" fill="#005487"/>
<path d="M107.936 29.0368H104.53V22.8987H105.544V28.1744H107.921V29.0368H107.936Z" fill="#005487"/>
<path d="M111.733 22.377C111.596 22.3745 111.463 22.326 111.356 22.2393C111.309 22.1933 111.272 22.138 111.247 22.0769C111.222 22.0158 111.21 21.9502 111.212 21.8842C111.21 21.8193 111.221 21.7546 111.246 21.6946C111.271 21.6347 111.309 21.5807 111.356 21.5364C111.406 21.4886 111.466 21.4518 111.53 21.4281C111.595 21.4044 111.664 21.3944 111.733 21.3987C111.872 21.3963 112.006 21.4453 112.11 21.5364C112.158 21.5801 112.196 21.6339 112.222 21.6941C112.247 21.7542 112.258 21.8191 112.255 21.8842C112.257 21.9502 112.245 22.0158 112.22 22.0769C112.195 22.138 112.158 22.1933 112.11 22.2393C112.005 22.3286 111.871 22.3774 111.733 22.377ZM112.27 29.0731H111.219V22.8988H112.27V29.0731Z" fill="#005487"/>
<path d="M118.98 29.0368H117.871L114.973 24.522C114.9 24.4116 114.837 24.2952 114.784 24.1741C114.815 24.4532 114.827 24.7341 114.82 25.0148V29.0368H113.835V22.8987H115.023L117.85 27.2975C117.931 27.4191 118.006 27.5449 118.074 27.6744C118.046 27.4 118.033 27.1241 118.038 26.8482V22.8987H118.944V29.0368H118.98Z" fill="#005487"/>
<path d="M125.133 29.0369H123.807L121.633 26.2396C121.58 26.1701 121.532 26.0975 121.488 26.0222V29.0514H120.473V22.9133H121.488V25.8121C121.532 25.7393 121.58 25.6692 121.633 25.6019L123.698 22.9278H124.923L122.567 25.8483L125.133 29.0369Z" fill="#005487"/>
<path d="M126.343 22.3769C126.207 22.3756 126.077 22.3269 125.973 22.2392C125.925 22.1936 125.887 22.1385 125.86 22.0775C125.834 22.0164 125.821 21.9506 125.821 21.8841C125.821 21.8187 125.834 21.7539 125.86 21.6939C125.886 21.634 125.925 21.5802 125.973 21.5363C126.022 21.4884 126.08 21.4513 126.143 21.4276C126.207 21.4038 126.275 21.3939 126.343 21.3986C126.481 21.3962 126.616 21.4452 126.72 21.5363C126.769 21.5793 126.809 21.6329 126.835 21.693C126.862 21.7532 126.874 21.8185 126.872 21.8841C126.872 21.9506 126.859 22.0164 126.833 22.0775C126.807 22.1385 126.768 22.1936 126.72 22.2392C126.617 22.3328 126.482 22.3823 126.343 22.3769ZM126.894 29.073H125.843V22.8987H126.916L126.894 29.073Z" fill="#005487"/>
<path d="M128.118 28.7973V27.7465C128.219 27.8416 128.334 27.92 128.459 27.9784C128.593 28.0446 128.731 28.1027 128.872 28.1523C129.013 28.203 129.159 28.2394 129.307 28.261C129.438 28.2862 129.572 28.2983 129.705 28.2973C130.036 28.3209 130.365 28.2479 130.655 28.0871C130.756 28.0186 130.839 27.9255 130.894 27.8165C130.95 27.7076 130.977 27.5862 130.974 27.4639C130.975 27.3313 130.94 27.201 130.872 27.087C130.793 26.9748 130.695 26.8768 130.582 26.7972C130.445 26.7019 130.3 26.6194 130.148 26.5508L129.597 26.2971C129.379 26.1884 129.198 26.0725 129.01 25.9638C128.84 25.8576 128.685 25.7311 128.546 25.5869C128.414 25.4533 128.308 25.296 128.234 25.1231C128.152 24.9309 128.113 24.7233 128.118 24.5144C128.117 24.2586 128.187 24.0074 128.321 23.7897C128.448 23.5768 128.625 23.3978 128.836 23.2679C129.059 23.1254 129.304 23.0201 129.561 22.9563C130.298 22.7893 131.067 22.8268 131.785 23.065V24.0651C131.388 23.8042 130.92 23.6726 130.445 23.6882C130.294 23.6884 130.143 23.7029 129.995 23.7317C129.855 23.751 129.719 23.7978 129.597 23.8694C129.482 23.927 129.382 24.0115 129.307 24.1158C129.231 24.2265 129.193 24.3586 129.198 24.4927C129.192 24.6147 129.222 24.7359 129.285 24.8405C129.349 24.9473 129.432 25.0408 129.532 25.1159C129.657 25.2072 129.79 25.2872 129.93 25.355L130.481 25.6014C130.688 25.708 130.889 25.8265 131.082 25.9565C131.266 26.0726 131.434 26.2114 131.582 26.3696C131.73 26.5104 131.846 26.6808 131.923 26.8696C132.01 27.0603 132.053 27.2687 132.046 27.4784C132.054 27.7536 131.989 28.026 131.858 28.2683C131.731 28.4811 131.554 28.6602 131.343 28.79C131.12 28.9269 130.875 29.0249 130.619 29.0799C130.333 29.1397 130.041 29.1688 129.749 29.1669C129.647 29.1669 129.524 29.1669 129.372 29.1669C129.22 29.1669 129.075 29.1669 128.908 29.1089C128.756 29.0814 128.606 29.0426 128.459 28.993C128.337 28.9427 128.223 28.877 128.118 28.7973ZM131.017 30.1017C131.017 30.6525 130.604 30.9279 129.785 30.9279C129.667 30.9359 129.548 30.9359 129.43 30.9279V30.4496C129.561 30.4496 129.655 30.4496 129.734 30.4496C130.104 30.4496 130.307 30.3336 130.307 30.0945C130.307 29.8553 130.133 29.7829 129.792 29.7829C129.739 29.7777 129.686 29.7777 129.633 29.7829V29.0364H130.22V29.435C130.43 29.4249 130.637 29.4862 130.807 29.6089C130.878 29.6693 130.933 29.7451 130.97 29.8306C131.006 29.9161 131.023 30.0089 131.017 30.1017Z" fill="#005487"/>
<path d="M138.206 29.0365H137.097L136.547 27.4494H134.119L133.597 29.0075H132.481L134.786 22.8694H135.931L138.206 29.0365ZM136.271 26.6522L135.423 24.2028C135.387 24.0745 135.361 23.9437 135.344 23.8115C135.332 23.9452 135.303 24.0768 135.257 24.2028L134.423 26.6522H136.271Z" fill="#005487"/>
<path d="M142.358 23.7756H140.068V25.6163H142.185V26.4786H140.068V29.0368H139.054V22.8987H142.373V23.7756H142.358Z" fill="#005487"/>
<path d="M150.656 22.9132L148.482 29.0513H147.345L145.171 22.9132H146.287L147.794 27.5657C147.848 27.7309 147.886 27.9007 147.91 28.073C147.933 27.8954 147.975 27.7206 148.033 27.5512L149.584 22.8987H150.656V22.9132Z" fill="#005487"/>
<path d="M151.069 25.5367H155.729C155.704 25.0165 155.475 24.5272 155.092 24.1743C154.689 23.8298 154.171 23.651 153.642 23.6743C153.023 23.6603 152.415 23.8402 151.903 24.1888V23.254C152.468 22.9362 153.11 22.7783 153.758 22.7974C154.168 22.7712 154.58 22.8326 154.965 22.9775C155.349 23.1225 155.699 23.3476 155.99 23.638C156.271 23.9477 156.488 24.3104 156.627 24.7049C156.767 25.0993 156.826 25.5176 156.802 25.9353C156.832 26.7784 156.542 27.6017 155.99 28.2398C155.718 28.5431 155.381 28.7822 155.005 28.9401C154.63 29.098 154.223 29.1707 153.816 29.1529C153.424 29.1734 153.033 29.1014 152.674 28.9428C152.316 28.7842 151.999 28.5434 151.751 28.2398C151.23 27.4395 150.99 26.4884 151.069 25.5367ZM155.729 26.3846H152.171C152.158 26.8852 152.325 27.3739 152.642 27.7615C152.798 27.933 152.99 28.0679 153.204 28.1569C153.418 28.2458 153.65 28.2865 153.881 28.276C154.12 28.2835 154.358 28.2416 154.58 28.1531C154.802 28.0646 155.003 27.9313 155.171 27.7615C155.513 27.3823 155.711 26.8949 155.729 26.3846Z" fill="#005487"/>
<path d="M65.9838 40.2844H64.875L61.9763 35.7769C61.9066 35.6648 61.8437 35.5486 61.7878 35.429C61.8067 35.7065 61.8067 35.9849 61.7878 36.2624V40.2844H60.7878V34.1536H61.969L64.7953 38.5524C64.8818 38.6682 64.957 38.792 65.02 38.922C65.0035 38.6493 65.0035 38.3758 65.02 38.1031V34.1536H65.9693V40.2844H65.9838Z" fill="#005487"/>
<path d="M67.0997 36.7913H71.7594C71.7483 36.5317 71.6855 36.2768 71.5748 36.0416C71.464 35.8064 71.3075 35.5957 71.1144 35.4217C70.7134 35.0752 70.1945 34.8962 69.6651 34.9217C69.0469 34.9075 68.4394 35.0847 67.9258 35.4289V34.5013C68.4894 34.186 69.1284 34.0306 69.7738 34.052C70.1844 34.0284 70.5954 34.0903 70.9809 34.2337C71.3663 34.3772 71.7178 34.5991 72.013 34.8854C72.2935 35.1971 72.5096 35.5612 72.6489 35.9567C72.7882 36.3521 72.848 36.7713 72.8247 37.1899C72.8516 38.0303 72.5619 38.8502 72.013 39.4872C71.7406 39.7905 71.4043 40.0296 71.0284 40.1875C70.6525 40.3454 70.2463 40.4181 69.839 40.4003C69.4469 40.4232 69.0551 40.3523 68.6959 40.1935C68.3367 40.0347 68.0206 39.7926 67.7736 39.4872C67.2546 38.6889 67.0173 37.74 67.0997 36.7913ZM71.7594 37.6392H68.2157C68.2077 38.1403 68.3771 38.628 68.694 39.0161C68.8508 39.1863 69.0431 39.3199 69.2572 39.4076C69.4713 39.4952 69.7021 39.5348 69.9332 39.5234C70.1703 39.5308 70.4064 39.4896 70.627 39.4024C70.8476 39.3151 71.048 39.1837 71.2159 39.0161C71.5526 38.6349 71.7449 38.1477 71.7594 37.6392Z" fill="#005487"/>
<path d="M76.499 40.3855C76.087 40.3922 75.6778 40.3158 75.296 40.1608C74.9447 40.0171 74.6284 39.7996 74.3684 39.5231C74.1137 39.239 73.9146 38.9096 73.7814 38.552C73.6383 38.1472 73.5672 37.7204 73.5712 37.2911C73.5662 36.8356 73.6373 36.3825 73.7814 35.9504C73.9093 35.572 74.1141 35.2241 74.3829 34.9286C74.6456 34.6419 74.9703 34.4188 75.3322 34.2764C75.7316 34.1209 76.1574 34.0446 76.5859 34.0517C76.9884 34.0471 77.3876 34.1235 77.7599 34.2764C78.1044 34.4249 78.415 34.6419 78.673 34.9141C78.9327 35.1945 79.1324 35.525 79.26 35.8852C79.4025 36.2877 79.4737 36.7119 79.4702 37.1389C79.4809 37.6827 79.3797 38.2229 79.1731 38.726C78.9973 39.1544 78.7185 39.5327 78.3614 39.8275L80.1297 41.1102H78.5861L77.4845 40.2623L77.0352 40.3637C76.8572 40.3837 76.678 40.3909 76.499 40.3855ZM76.5497 34.9503C76.29 34.9429 76.0322 34.9953 75.7959 35.1033C75.5597 35.2114 75.3515 35.3723 75.1873 35.5736C75.0105 35.7871 74.8775 36.0333 74.796 36.2983C74.702 36.6034 74.6555 36.9211 74.6583 37.2403C74.6571 37.5524 74.7035 37.8627 74.796 38.1607C74.8733 38.4244 75.0013 38.6706 75.1728 38.8854C75.3328 39.0786 75.5331 39.2345 75.7598 39.3419C75.985 39.4533 76.2332 39.5104 76.4845 39.5086C76.7555 39.5136 77.0246 39.4617 77.2744 39.3564C77.5054 39.2592 77.7111 39.1105 77.8759 38.9216C78.0481 38.7084 78.174 38.4616 78.2455 38.1969C78.339 37.8892 78.3854 37.5692 78.3832 37.2476C78.3902 36.9196 78.3487 36.5924 78.26 36.2765C78.1857 36.0144 78.0627 35.7686 77.8976 35.5518C77.7482 35.3497 77.5447 35.194 77.3106 35.1025C77.0689 35.004 76.8107 34.9524 76.5497 34.9503Z" fill="#005487"/>
<path d="M83.9849 40.2844H80.5861V34.1536H81.5934V39.422H83.9704V40.2844H83.9849Z" fill="#005487"/>
<path d="M85.3838 33.5883C85.2463 33.5858 85.1137 33.5373 85.0069 33.4506C84.9608 33.4053 84.9242 33.3511 84.8993 33.2914C84.8745 33.2316 84.8618 33.1675 84.862 33.1028C84.862 32.97 84.914 32.8425 85.0069 32.7477C85.1096 32.6541 85.245 32.6047 85.3838 32.61C85.5221 32.6076 85.6564 32.6567 85.7606 32.7477C85.8091 32.7928 85.8472 32.848 85.8722 32.9093C85.8972 32.9706 85.9086 33.0366 85.9056 33.1028C85.9075 33.1678 85.8956 33.2324 85.8706 33.2924C85.8456 33.3524 85.8081 33.4063 85.7606 33.4506C85.6572 33.5429 85.5224 33.5922 85.3838 33.5883ZM85.92 40.2844H84.8837V34.1536H85.9345L85.92 40.2844Z" fill="#005487"/>
<path d="M91.6955 34.1608L89.6809 38.0596V40.2844H88.6736V38.0741L86.7097 34.1536H87.8692L89.0721 36.7769C89.121 36.89 89.1622 37.0062 89.1953 37.1248C89.2309 37.005 89.277 36.8886 89.333 36.7769L90.594 34.1536H91.681L91.6955 34.1608Z" fill="#005487"/>
<path d="M96.7613 34.1608L94.7467 38.0596V40.2844H93.7322V38.0741L91.7682 34.1536H92.935L94.1307 36.7769C94.1801 36.8906 94.2236 37.0067 94.2612 37.1248C94.2612 37.0378 94.3409 36.9146 94.3989 36.7769L95.6671 34.1536H96.7541L96.7613 34.1608Z" fill="#005487"/>
<path d="M101.906 40.2844H100.827L100.276 38.7263H97.8626L97.3408 40.2844H96.2248L98.5221 34.1536H99.6743L101.906 40.2844ZM99.9714 37.9002L99.1235 35.4218C99.0859 35.2938 99.0593 35.1629 99.0438 35.0304C99.027 35.164 98.9954 35.2952 98.9496 35.4218L98.1162 37.8712L99.9714 37.9002Z" fill="#005487"/>
<path d="M106.059 35.0228H104.298V40.284H103.283V35.0228H101.551V34.1604H106.088V35.0228H106.059Z" fill="#005487"/>
<path d="M114.596 40.2844H113.48L110.581 35.7769C110.511 35.6663 110.45 35.5499 110.4 35.429C110.435 35.7053 110.447 35.9841 110.436 36.2624V40.2844H109.45V34.1536H110.639L113.465 38.5524C113.588 38.7408 113.661 38.864 113.69 38.922C113.661 38.65 113.649 38.3766 113.654 38.1031V34.1536H114.596V40.2844Z" fill="#005487"/>
<path d="M121.118 40.2844H120.009L119.458 38.7263H117.045L116.523 40.2844H115.407L117.705 34.1536H118.857L121.118 40.2844ZM119.183 37.9002L118.335 35.4218C118.298 35.2938 118.271 35.1629 118.255 35.0304C118.237 35.163 118.208 35.2939 118.168 35.4218L117.328 37.8712L119.183 37.9002Z" fill="#005487"/>
<path d="M126.336 34.6025L122.973 39.4216H126.285V40.284H121.546V39.8275L124.923 35.0228H121.843V34.1604H126.372V34.6025H126.336Z" fill="#005487"/>
<path d="M127.792 33.5874C127.657 33.5861 127.526 33.5374 127.423 33.4497C127.374 33.4058 127.336 33.3521 127.31 33.2921C127.283 33.2322 127.27 33.1673 127.271 33.1019C127.27 33.0354 127.284 32.9696 127.31 32.9086C127.336 32.8475 127.375 32.7924 127.423 32.7468C127.472 32.7003 127.53 32.6642 127.594 32.6406C127.657 32.6169 127.725 32.6062 127.792 32.6091C127.931 32.6067 128.065 32.6558 128.169 32.7468C128.219 32.7916 128.258 32.8465 128.284 32.9077C128.31 32.969 128.323 33.0352 128.322 33.1019C128.322 33.1673 128.309 33.2322 128.283 33.2921C128.256 33.3521 128.218 33.4058 128.169 33.4497C128.119 33.4975 128.06 33.5343 127.995 33.558C127.93 33.5817 127.861 33.5917 127.792 33.5874ZM128.336 40.2835H127.285V34.1527H128.365L128.336 40.2835Z" fill="#005487"/>
<path d="M134.583 40.2844H133.394L132.423 38.6539C132.342 38.5177 132.253 38.387 132.155 38.2625C132.081 38.1633 131.993 38.0754 131.894 38.0017C131.805 37.9369 131.708 37.8856 131.604 37.8495C131.492 37.8117 131.374 37.7945 131.256 37.7987H130.843V40.2844H129.814V34.1536H131.822C132.092 34.1541 132.362 34.1857 132.626 34.2478C132.856 34.3156 133.072 34.4235 133.264 34.5666C133.44 34.7025 133.583 34.8758 133.684 35.0739C133.789 35.3009 133.841 35.5487 133.836 35.7986C133.837 36.0034 133.802 36.2068 133.735 36.4001C133.675 36.5783 133.582 36.7432 133.459 36.8856C133.342 37.0305 133.2 37.1532 133.039 37.248C132.863 37.3518 132.673 37.4276 132.474 37.4726C132.577 37.5333 132.674 37.6036 132.764 37.6828C132.846 37.757 132.924 37.8369 132.996 37.9219C133.078 38.0074 133.153 38.0996 133.22 38.1973C133.3 38.2988 133.372 38.422 133.459 38.5452L134.583 40.2844ZM130.858 34.987V36.9726H131.706C131.856 36.9757 132.006 36.9511 132.148 36.9001C132.278 36.8576 132.397 36.7857 132.495 36.69C132.598 36.5976 132.676 36.4803 132.72 36.3494C132.777 36.2114 132.806 36.0637 132.807 35.9146C132.821 35.7806 132.803 35.6454 132.755 35.5195C132.708 35.3937 132.631 35.2808 132.532 35.1899C132.305 35.0121 132.022 34.922 131.735 34.9362H130.858V34.987Z" fill="#005487"/>
<path d="M138.692 40.2844H135.293V34.1536H136.337V39.422H138.714V40.2844H138.692Z" fill="#005487"/>
<path d="M140.083 33.5883C139.945 33.5858 139.813 33.5373 139.706 33.4506C139.658 33.4067 139.619 33.353 139.593 33.293C139.567 33.2331 139.553 33.1682 139.554 33.1028C139.554 33.0363 139.567 32.9705 139.593 32.9095C139.619 32.8484 139.658 32.7933 139.706 32.7477C139.809 32.6541 139.944 32.6047 140.083 32.61C140.221 32.6076 140.356 32.6567 140.46 32.7477C140.507 32.7937 140.544 32.849 140.569 32.9101C140.594 32.9712 140.606 33.0368 140.605 33.1028C140.605 33.1675 140.592 33.2316 140.567 33.2914C140.542 33.3511 140.506 33.4053 140.46 33.4506C140.41 33.4984 140.351 33.5352 140.286 33.5589C140.221 33.5826 140.152 33.5927 140.083 33.5883ZM140.619 40.2844H139.568V34.1536H140.619V40.2844Z" fill="#005487"/>
<path d="M146.41 34.1608L144.395 38.0596V40.2844H143.381V38.0741L141.409 34.1536H142.576L143.772 36.7769C143.821 36.8906 143.865 37.0067 143.902 37.1248C143.902 37.0378 143.982 36.9146 144.04 36.7769L145.308 34.1536H146.395L146.41 34.1608Z" fill="#005487"/>
<path d="M147.692 33.5874C147.557 33.5861 147.426 33.5374 147.323 33.4497C147.274 33.4058 147.236 33.3521 147.209 33.2921C147.183 33.2322 147.17 33.1673 147.171 33.1019C147.17 33.0354 147.184 32.9696 147.21 32.9086C147.236 32.8475 147.274 32.7924 147.323 32.7468C147.372 32.7003 147.43 32.6642 147.494 32.6406C147.557 32.6169 147.625 32.6062 147.692 32.6091C147.831 32.6067 147.965 32.6558 148.069 32.7468C148.119 32.7916 148.158 32.8465 148.184 32.9077C148.21 32.969 148.223 33.0352 148.221 33.1019C148.222 33.1673 148.209 33.2322 148.183 33.2921C148.156 33.3521 148.118 33.4058 148.069 33.4497C147.967 33.5433 147.831 33.5928 147.692 33.5874ZM148.229 40.2835H147.207V34.1527H148.25L148.229 40.2835Z" fill="#005487"/>
</g>
</svg>
